<svg xmlns="http://www.w3.org/2000/svg" xmlns:xlink="http://www.w3.org/1999/xlink" width="500" zoomAndPan="magnify" viewBox="0 0 375 262.499992" height="350" preserveAspectRatio="xMidYMid meet" version="1.0"><path fill="#caddff" d="M 308.4375 54.644531 C 300.089844 37.824219 283.402344 28.738281 273.058594 23.101562 C 228.332031 -1.261719 167.402344 5.226562 126.90625 27.941406 C 86.933594 50.363281 52.097656 103.449219 66.699219 161.128906 C 81.359375 219.03125 125.359375 246.621094 168.511719 252.929688 C 237.035156 262.953125 307.667969 219.539062 310.816406 203.710938 C 311.789062 198.828125 311.535156 194.503906 311.535156 194.503906 C 310.320312 183.082031 300.90625 176.292969 298.710938 150.253906 C 294.675781 102.34375 323.082031 84.140625 308.4375 54.644531 " fill-opacity="1" fill-rule="nonzero"/><path fill="#99b9ff" d="M 211.773438 158.132812 L 212.324219 12.484375 C 212.332031 10.53125 213.917969 8.9375 215.871094 8.929688 L 309.078125 8.507812 C 311.027344 8.5 312.601562 10.078125 312.59375 12.035156 L 312.042969 157.679688 C 312.035156 159.636719 310.449219 161.230469 308.5 161.238281 L 215.292969 161.660156 C 213.339844 161.667969 211.765625 160.089844 211.773438 158.132812 " fill-opacity="1" fill-rule="nonzero"/><path fill="#ffffff" d="M 204.082031 152.535156 L 204.589844 18.859375 C 204.597656 16.902344 206.183594 15.308594 208.132812 15.296875 L 301.339844 14.878906 C 303.292969 14.871094 304.863281 16.449219 304.859375 18.40625 L 304.351562 152.085938 C 304.34375 154.042969 302.757812 155.636719 300.808594 155.644531 L 207.597656 156.066406 C 205.652344 156.074219 204.074219 154.492188 204.082031 152.535156 " fill-opacity="1" fill-rule="nonzero"/><path fill="#caddff" d="M 200.132812 151.9375 L 200.640625 18.257812 C 200.648438 16.300781 202.234375 14.707031 204.183594 14.699219 L 297.394531 14.277344 C 299.34375 14.269531 300.917969 15.847656 300.910156 17.804688 L 300.402344 151.488281 C 300.394531 153.445312 298.808594 155.035156 296.859375 155.046875 L 203.648438 155.464844 C 201.699219 155.476562 200.125 153.894531 200.132812 151.9375 " fill-opacity="1" fill-rule="nonzero"/><path fill="#5479f7" d="M 194.933594 161.023438 L 195.507812 9.746094 C 195.515625 7.789062 197.101562 6.195312 199.050781 6.1875 L 292.261719 5.769531 C 294.210938 5.757812 295.789062 7.339844 295.777344 9.296875 L 295.207031 160.570312 C 295.199219 162.527344 293.613281 164.121094 291.660156 164.132812 L 198.453125 164.550781 C 196.503906 164.558594 194.929688 162.980469 194.933594 161.023438 " fill-opacity="1" fill-rule="nonzero"/><path fill="#000000" d="M 165.773438 185.453125 C 166.171875 185.234375 166.574219 185.023438 166.976562 184.820312 C 170.554688 183.035156 174.410156 181.707031 178.164062 180.347656 C 192.0625 175.3125 206.386719 171.605469 220.542969 167.402344 C 225.554688 165.914062 230.570312 164.449219 235.609375 163.082031 C 255.023438 122.453125 289.933594 48.449219 286.675781 48.449219 L 97.804688 41.171875 C 93.3125 41.171875 89.648438 44.820312 89.648438 49.304688 L 89.648438 180.914062 C 89.648438 185.398438 93.3125 189.046875 97.804688 189.046875 L 166.050781 184.433594 L 165.773438 185.453125 " fill-opacity="1" fill-rule="nonzero"/><path fill="#ffffff" d="M 221.921875 172.253906 L 173.761719 172.253906 L 160.097656 222.042969 L 235.582031 222.042969 L 221.921875 172.253906 " fill-opacity="1" fill-rule="nonzero"/><path fill="#000000" d="M 160.6875 221.589844 L 234.992188 221.589844 L 221.578125 172.707031 L 174.101562 172.707031 Z M 235.582031 222.492188 L 160.097656 222.492188 C 159.957031 222.492188 159.824219 222.425781 159.738281 222.3125 C 159.652344 222.203125 159.625 222.058594 159.664062 221.921875 L 173.324219 172.136719 C 173.378906 171.941406 173.558594 171.804688 173.761719 171.804688 L 221.921875 171.804688 C 222.121094 171.804688 222.300781 171.941406 222.355469 172.136719 L 236.019531 221.921875 C 236.054688 222.058594 236.027344 222.203125 235.941406 222.3125 C 235.855469 222.425781 235.722656 222.492188 235.582031 222.492188 " fill-opacity="1" fill-rule="nonzero"/><path fill="#ffffff" d="M 301.457031 49.316406 C 301.457031 45.078125 298.015625 41.644531 293.773438 41.644531 L 101.539062 41.644531 C 97.296875 41.644531 93.855469 45.078125 93.855469 49.316406 L 93.855469 180.929688 C 93.855469 185.167969 97.296875 188.601562 101.539062 188.601562 L 293.773438 188.601562 C 298.015625 188.601562 301.457031 185.167969 301.457031 180.929688 L 301.457031 49.316406 " fill-opacity="1" fill-rule="nonzero"/><path fill="#ffffff" d="M 243.78125 216.941406 L 151.898438 216.941406 C 149.257812 216.941406 147.117188 218.953125 147.117188 221.589844 C 147.117188 224.226562 149.257812 226.238281 151.898438 226.238281 L 243.78125 226.238281 C 246.421875 226.238281 248.5625 224.226562 248.5625 221.589844 C 248.5625 218.953125 246.421875 216.941406 243.78125 216.941406 " fill-opacity="1" fill-rule="nonzero"/><path fill="#000000" d="M 151.898438 217.394531 C 149.472656 217.394531 147.570312 219.238281 147.570312 221.589844 C 147.570312 223.945312 149.472656 225.789062 151.898438 225.789062 L 243.777344 225.789062 C 246.210938 225.789062 248.109375 223.945312 248.109375 221.589844 C 248.109375 219.238281 246.210938 217.394531 243.777344 217.394531 Z M 243.777344 226.6875 L 151.898438 226.6875 C 148.964844 226.6875 146.667969 224.449219 146.667969 221.589844 C 146.667969 218.730469 148.964844 216.492188 151.898438 216.492188 L 243.777344 216.492188 C 246.714844 216.492188 249.011719 218.730469 249.011719 221.589844 C 249.011719 224.449219 246.714844 226.6875 243.777344 226.6875 " fill-opacity="1" fill-rule="nonzero"/><path fill="#000000" d="M 301.304688 123.972656 C 301.054688 123.972656 300.855469 123.769531 300.855469 123.519531 L 300.855469 49.46875 C 300.855469 45.484375 297.609375 42.246094 293.617188 42.246094 L 279.824219 42.246094 C 279.574219 42.246094 279.375 42.042969 279.375 41.796875 C 279.375 41.546875 279.574219 41.34375 279.824219 41.34375 L 293.617188 41.34375 C 298.105469 41.34375 301.753906 44.992188 301.753906 49.46875 L 301.753906 123.519531 C 301.753906 123.769531 301.554688 123.972656 301.304688 123.972656 " fill-opacity="1" fill-rule="nonzero"/><path fill="#000000" d="M 234.160156 189.203125 L 101.390625 189.203125 C 96.902344 189.203125 93.253906 185.558594 93.253906 181.078125 L 93.253906 49.46875 C 93.253906 44.988281 96.902344 41.347656 101.390625 41.347656 L 109.476562 41.347656 C 109.726562 41.347656 109.929688 41.546875 109.929688 41.796875 C 109.929688 42.042969 109.726562 42.246094 109.476562 42.246094 L 101.390625 42.246094 C 97.402344 42.246094 94.15625 45.484375 94.15625 49.46875 L 94.15625 181.078125 C 94.15625 185.0625 97.402344 188.300781 101.390625 188.300781 L 234.160156 188.300781 C 234.410156 188.300781 234.609375 188.503906 234.609375 188.75 C 234.609375 189 234.410156 189.203125 234.160156 189.203125 " fill-opacity="1" fill-rule="nonzero"/><path fill="#caddff" d="M 294.84375 52.359375 C 294.84375 50.253906 293.136719 48.542969 291.023438 48.542969 L 104.585938 48.542969 C 102.476562 48.542969 100.765625 50.253906 100.765625 52.359375 L 100.765625 178.1875 C 100.765625 180.296875 102.476562 182.003906 104.585938 182.003906 L 291.023438 182.003906 C 293.136719 182.003906 294.84375 180.296875 294.84375 178.1875 L 294.84375 52.359375 " fill-opacity="1" fill-rule="nonzero"/><path fill="#99b9ff" d="M 137.421875 178.105469 L 137.445312 146.3125 L 125.957031 146.3125 L 125.933594 178.105469 L 137.421875 178.105469 " fill-opacity="1" fill-rule="nonzero"/><path fill="#99b9ff" d="M 151.195312 178.105469 L 151.503906 134.316406 L 140.011719 134.316406 L 139.707031 178.105469 L 151.195312 178.105469 " fill-opacity="1" fill-rule="nonzero"/><path fill="#99b9ff" d="M 164.96875 178.105469 L 165.183594 137.617188 L 153.695312 137.617188 L 153.480469 178.105469 L 164.96875 178.105469 " fill-opacity="1" fill-rule="nonzero"/><path fill="#99b9ff" d="M 178.742188 178.105469 L 179.140625 122.621094 L 167.652344 122.621094 L 167.257812 178.105469 L 178.742188 178.105469 " fill-opacity="1" fill-rule="nonzero"/><path fill="#99b9ff" d="M 192.519531 178.105469 L 192.902344 108.226562 L 181.414062 108.226562 L 181.03125 178.105469 L 192.519531 178.105469 " fill-opacity="1" fill-rule="nonzero"/><path fill="#99b9ff" d="M 206.292969 178.105469 L 206.972656 112.425781 L 195.484375 112.425781 L 194.804688 178.105469 L 206.292969 178.105469 " fill-opacity="1" fill-rule="nonzero"/><path fill="#99b9ff" d="M 220.328125 178.105469 L 221.195312 101.628906 L 209.707031 101.628906 L 208.839844 178.105469 L 220.328125 178.105469 " fill-opacity="1" fill-rule="nonzero"/><path fill="#99b9ff" d="M 234.359375 178.105469 L 235.523438 98.027344 L 224.035156 98.027344 L 222.871094 178.105469 L 234.359375 178.105469 " fill-opacity="1" fill-rule="nonzero"/><path fill="#99b9ff" d="M 248.394531 178.105469 L 249.140625 119.324219 L 237.648438 119.324219 L 236.90625 178.105469 L 248.394531 178.105469 " fill-opacity="1" fill-rule="nonzero"/><path fill="#99b9ff" d="M 262.433594 178.105469 L 263.445312 132.21875 L 251.957031 132.21875 L 250.945312 178.105469 L 262.433594 178.105469 " fill-opacity="1" fill-rule="nonzero"/><path fill="#99b9ff" d="M 276.46875 178.105469 L 277.039062 138.214844 L 265.550781 138.214844 L 264.980469 178.105469 L 276.46875 178.105469 " fill-opacity="1" fill-rule="nonzero"/><path fill="#99b9ff" d="M 290.503906 178.105469 L 291.140625 136.714844 L 279.648438 136.714844 L 279.011719 178.105469 L 290.503906 178.105469 " fill-opacity="1" fill-rule="nonzero"/><path fill="#000000" d="M 201.007812 106.15625 C 200.898438 106.15625 200.792969 106.113281 200.710938 106.042969 L 192.140625 98.492188 C 191.953125 98.324219 191.9375 98.042969 192.101562 97.855469 C 192.265625 97.667969 192.550781 97.652344 192.738281 97.816406 L 200.96875 105.070312 L 220.980469 82.351562 C 221.058594 82.261719 221.167969 82.207031 221.289062 82.199219 C 221.410156 82.191406 221.527344 82.234375 221.617188 82.3125 L 232.390625 91.8125 L 245.152344 77.324219 C 245.320312 77.136719 245.605469 77.121094 245.789062 77.285156 C 245.976562 77.449219 245.996094 77.730469 245.832031 77.917969 L 232.773438 92.746094 C 232.691406 92.835938 232.582031 92.890625 232.460938 92.898438 C 232.339844 92.90625 232.226562 92.863281 232.136719 92.785156 L 221.355469 83.285156 L 201.347656 106.003906 C 201.269531 106.089844 201.15625 106.144531 201.035156 106.15625 C 201.027344 106.15625 201.019531 106.15625 201.007812 106.15625 " fill-opacity="1" fill-rule="nonzero"/><path fill="#000000" d="M 127.058594 140.070312 C 126.953125 140.070312 126.847656 140.035156 126.761719 139.957031 C 126.574219 139.796875 126.558594 139.511719 126.722656 139.324219 L 144.074219 119.621094 C 144.15625 119.53125 144.265625 119.476562 144.386719 119.46875 C 144.507812 119.464844 144.625 119.503906 144.710938 119.582031 L 156.445312 129.925781 L 184.46875 98.117188 C 184.632812 97.929688 184.917969 97.910156 185.105469 98.074219 C 185.292969 98.238281 185.308594 98.523438 185.144531 98.710938 L 156.824219 130.859375 C 156.746094 130.949219 156.636719 131.003906 156.515625 131.011719 C 156.398438 131.019531 156.28125 130.976562 156.191406 130.898438 L 144.453125 120.554688 L 127.398438 139.917969 C 127.308594 140.019531 127.183594 140.070312 127.058594 140.070312 " fill-opacity="1" fill-rule="nonzero"/><path fill="#5479f7" d="M 142.480469 119.917969 C 142.34375 118.859375 143.101562 118 144.171875 118 C 145.238281 118 146.214844 118.859375 146.347656 119.917969 C 146.484375 120.980469 145.726562 121.839844 144.65625 121.839844 C 143.589844 121.839844 142.613281 120.980469 142.480469 119.917969 " fill-opacity="1" fill-rule="nonzero"/><path fill="#000000" d="M 144.171875 117.097656 C 143.390625 117.097656 142.691406 117.40625 142.199219 117.964844 C 141.703125 118.523438 141.488281 119.257812 141.585938 120.03125 C 141.777344 121.550781 143.128906 122.738281 144.65625 122.738281 C 145.4375 122.738281 146.136719 122.433594 146.628906 121.875 C 147.125 121.3125 147.339844 120.582031 147.242188 119.804688 C 147.050781 118.289062 145.703125 117.097656 144.171875 117.097656 Z M 144.171875 118 C 145.238281 118 146.214844 118.859375 146.347656 119.917969 C 146.484375 120.980469 145.726562 121.839844 144.65625 121.839844 C 143.589844 121.839844 142.613281 120.980469 142.480469 119.917969 C 142.34375 118.859375 143.101562 118 144.171875 118 " fill-opacity="1" fill-rule="nonzero"/><path fill="#99b9ff" d="M 199.125 105.625 C 198.988281 104.566406 199.746094 103.707031 200.816406 103.707031 C 201.882812 103.707031 202.859375 104.566406 202.992188 105.625 C 203.125 106.6875 202.371094 107.546875 201.300781 107.546875 C 200.234375 107.546875 199.257812 106.6875 199.125 105.625 " fill-opacity="1" fill-rule="nonzero"/><path fill="#000000" d="M 200.816406 102.808594 C 200.035156 102.808594 199.335938 103.113281 198.84375 103.671875 C 198.347656 104.230469 198.132812 104.964844 198.230469 105.738281 C 198.421875 107.257812 199.773438 108.445312 201.300781 108.445312 C 202.078125 108.445312 202.78125 108.136719 203.273438 107.582031 C 203.765625 107.019531 203.984375 106.289062 203.886719 105.511719 C 203.695312 103.996094 202.34375 102.808594 200.816406 102.808594 Z M 200.816406 103.707031 C 201.882812 103.707031 202.859375 104.566406 202.992188 105.625 C 203.125 106.6875 202.371094 107.546875 201.300781 107.546875 C 200.234375 107.546875 199.257812 106.6875 199.125 105.625 C 198.988281 104.566406 199.746094 103.707031 200.816406 103.707031 " fill-opacity="1" fill-rule="nonzero"/><path fill="#5479f7" d="M 219.554688 82.433594 C 219.421875 81.371094 220.175781 80.511719 221.246094 80.511719 C 222.316406 80.511719 223.289062 81.371094 223.425781 82.433594 C 223.558594 83.492188 222.804688 84.351562 221.734375 84.351562 C 220.664062 84.351562 219.691406 83.492188 219.554688 82.433594 " fill-opacity="1" fill-rule="nonzero"/><path fill="#000000" d="M 221.246094 79.609375 C 220.46875 79.609375 219.769531 79.917969 219.273438 80.476562 C 218.78125 81.039062 218.5625 81.769531 218.660156 82.542969 C 218.855469 84.0625 220.203125 85.25 221.734375 85.25 C 222.511719 85.25 223.210938 84.945312 223.707031 84.386719 C 224.199219 83.828125 224.417969 83.09375 224.320312 82.320312 C 224.125 80.800781 222.777344 79.609375 221.246094 79.609375 Z M 221.246094 80.511719 C 222.316406 80.511719 223.289062 81.371094 223.425781 82.433594 C 223.558594 83.492188 222.804688 84.351562 221.734375 84.351562 C 220.664062 84.351562 219.691406 83.492188 219.554688 82.433594 C 219.421875 81.371094 220.175781 80.511719 221.246094 80.511719 " fill-opacity="1" fill-rule="nonzero"/><path fill="#99b9ff" d="M 230.753906 92.304688 C 230.621094 91.242188 231.378906 90.382812 232.445312 90.382812 C 233.515625 90.382812 234.488281 91.242188 234.625 92.304688 C 234.757812 93.363281 234 94.222656 232.933594 94.222656 C 231.863281 94.222656 230.886719 93.363281 230.753906 92.304688 " fill-opacity="1" fill-rule="nonzero"/><path fill="#000000" d="M 232.445312 89.484375 C 231.667969 89.484375 230.96875 89.792969 230.476562 90.351562 C 229.980469 90.910156 229.761719 91.644531 229.859375 92.417969 C 230.050781 93.933594 231.402344 95.125 232.933594 95.125 C 233.710938 95.125 234.410156 94.816406 234.90625 94.257812 C 235.398438 93.699219 235.617188 92.964844 235.519531 92.191406 C 235.328125 90.671875 233.976562 89.484375 232.445312 89.484375 Z M 232.445312 90.382812 C 233.515625 90.382812 234.488281 91.242188 234.625 92.304688 C 234.757812 93.363281 234 94.222656 232.933594 94.222656 C 231.863281 94.222656 230.886719 93.363281 230.753906 92.304688 C 230.621094 91.242188 231.378906 90.382812 232.445312 90.382812 " fill-opacity="1" fill-rule="nonzero"/><path fill="#99b9ff" d="M 243.183594 78.191406 C 243.050781 77.128906 243.808594 76.269531 244.878906 76.269531 C 245.945312 76.269531 246.921875 77.128906 247.054688 78.191406 C 247.191406 79.25 246.433594 80.109375 245.363281 80.109375 C 244.292969 80.109375 243.320312 79.25 243.183594 78.191406 " fill-opacity="1" fill-rule="nonzero"/><path fill="#000000" d="M 244.878906 75.371094 C 244.097656 75.371094 243.398438 75.679688 242.90625 76.238281 C 242.410156 76.796875 242.195312 77.53125 242.289062 78.304688 C 242.484375 79.824219 243.832031 81.011719 245.363281 81.011719 C 246.140625 81.011719 246.84375 80.703125 247.335938 80.144531 C 247.828125 79.585938 248.046875 78.851562 247.949219 78.078125 C 247.757812 76.5625 246.410156 75.371094 244.878906 75.371094 Z M 244.878906 76.273438 C 245.945312 76.273438 246.921875 77.132812 247.054688 78.191406 C 247.1875 79.253906 246.433594 80.113281 245.363281 80.113281 C 244.292969 80.113281 243.320312 79.253906 243.183594 78.191406 C 243.050781 77.132812 243.808594 76.273438 244.878906 76.273438 " fill-opacity="1" fill-rule="nonzero"/><path fill="#99b9ff" d="M 154.703125 130.339844 C 154.570312 129.277344 155.328125 128.417969 156.394531 128.417969 C 157.460938 128.417969 158.4375 129.277344 158.574219 130.339844 C 158.707031 131.398438 157.949219 132.257812 156.882812 132.257812 C 155.8125 132.257812 154.835938 131.398438 154.703125 130.339844 " fill-opacity="1" fill-rule="nonzero"/><path fill="#000000" d="M 156.394531 127.519531 C 155.617188 127.519531 154.917969 127.828125 154.421875 128.382812 C 153.929688 128.945312 153.710938 129.679688 153.808594 130.453125 C 154 131.96875 155.351562 133.160156 156.882812 133.160156 C 157.660156 133.160156 158.359375 132.851562 158.851562 132.292969 C 159.347656 131.734375 159.566406 131 159.46875 130.226562 C 159.277344 128.707031 157.925781 127.519531 156.394531 127.519531 Z M 156.394531 128.417969 C 157.460938 128.417969 158.4375 129.277344 158.574219 130.339844 C 158.707031 131.398438 157.949219 132.257812 156.882812 132.257812 C 155.8125 132.257812 154.835938 131.398438 154.703125 130.339844 C 154.570312 129.277344 155.328125 128.417969 156.394531 128.417969 " fill-opacity="1" fill-rule="nonzero"/><path fill="#5479f7" d="M 186.351562 94.628906 C 186.21875 93.566406 186.976562 92.707031 188.042969 92.707031 C 189.113281 92.707031 190.089844 93.566406 190.222656 94.628906 C 190.359375 95.6875 189.597656 96.546875 188.53125 96.546875 C 187.464844 96.546875 186.488281 95.6875 186.351562 94.628906 " fill-opacity="1" fill-rule="nonzero"/><path fill="#000000" d="M 188.042969 91.808594 C 187.265625 91.808594 186.566406 92.117188 186.074219 92.671875 C 185.578125 93.234375 185.359375 93.96875 185.457031 94.742188 C 185.652344 96.257812 187 97.445312 188.53125 97.445312 C 189.308594 97.445312 190.011719 97.140625 190.503906 96.582031 C 190.996094 96.023438 191.214844 95.289062 191.117188 94.515625 C 190.925781 92.996094 189.574219 91.808594 188.042969 91.808594 Z M 188.042969 92.707031 C 189.113281 92.707031 190.089844 93.566406 190.222656 94.628906 C 190.359375 95.6875 189.597656 96.546875 188.53125 96.546875 C 187.464844 96.546875 186.488281 95.6875 186.351562 94.628906 C 186.21875 93.566406 186.976562 92.707031 188.042969 92.707031 " fill-opacity="1" fill-rule="nonzero"/><path fill="#99b9ff" d="M 124.707031 139.769531 C 124.574219 138.707031 125.332031 137.847656 126.398438 137.847656 C 127.46875 137.847656 128.445312 138.707031 128.578125 139.769531 C 128.710938 140.832031 127.953125 141.691406 126.886719 141.691406 C 125.816406 141.691406 124.84375 140.832031 124.707031 139.769531 " fill-opacity="1" fill-rule="nonzero"/><path fill="#000000" d="M 126.398438 136.949219 C 125.621094 136.949219 124.921875 137.257812 124.425781 137.816406 C 123.933594 138.375 123.714844 139.109375 123.8125 139.882812 C 124.007812 141.398438 125.355469 142.589844 126.886719 142.589844 C 127.664062 142.589844 128.367188 142.28125 128.859375 141.722656 C 129.351562 141.164062 129.570312 140.429688 129.472656 139.65625 C 129.277344 138.140625 127.929688 136.949219 126.398438 136.949219 Z M 126.398438 137.847656 C 127.46875 137.847656 128.445312 138.707031 128.578125 139.769531 C 128.710938 140.832031 127.953125 141.691406 126.886719 141.691406 C 125.816406 141.691406 124.84375 140.832031 124.707031 139.769531 C 124.574219 138.707031 125.332031 137.847656 126.398438 137.847656 " fill-opacity="1" fill-rule="nonzero"/><path fill="#99b9ff" d="M 166.65625 74.9375 L 111.949219 74.9375 C 111.597656 74.9375 111.261719 74.277344 111.230469 73.441406 L 111.101562 69.832031 C 111.078125 69.160156 111.269531 68.636719 111.550781 68.636719 L 166.257812 68.636719 C 166.605469 68.636719 166.949219 69.464844 166.976562 70.296875 L 167.105469 73.824219 C 167.128906 74.496094 166.9375 74.9375 166.65625 74.9375 " fill-opacity="1" fill-rule="nonzero"/><path fill="#99b9ff" d="M 166.234375 86.632812 L 111.410156 86.632812 C 111.097656 86.632812 110.785156 85.984375 110.757812 85.234375 L 110.597656 81.234375 C 110.578125 80.628906 110.730469 80.035156 110.984375 80.035156 L 165.804688 80.035156 C 166.121094 80.035156 166.441406 80.875 166.46875 81.625 L 166.625 85.53125 C 166.644531 86.136719 166.488281 86.632812 166.234375 86.632812 " fill-opacity="1" fill-rule="nonzero"/><path fill="#000000" d="M 229 249.332031 C 228.777344 249.332031 228.582031 249.167969 228.550781 248.941406 C 228.519531 248.695312 228.691406 248.46875 228.9375 248.4375 C 240.1875 246.914062 250.710938 243.003906 260.210938 236.820312 C 260.417969 236.683594 260.695312 236.742188 260.835938 236.949219 C 260.96875 237.15625 260.910156 237.4375 260.703125 237.574219 C 251.089844 243.832031 240.445312 247.785156 229.058594 249.328125 C 229.039062 249.332031 229.019531 249.332031 229 249.332031 " fill-opacity="1" fill-rule="nonzero"/><path fill="#000000" d="M 200.574219 246.796875 C 199.113281 246.796875 198.28125 246.765625 198.230469 246.761719 C 197.980469 246.75 197.789062 246.539062 197.796875 246.292969 C 197.808594 246.046875 198.015625 245.851562 198.269531 245.863281 C 198.601562 245.875 231.792969 247.101562 254.304688 233.179688 C 254.515625 233.050781 254.792969 233.113281 254.921875 233.324219 C 255.054688 233.535156 254.988281 233.8125 254.777344 233.945312 C 235.523438 245.851562 208.597656 246.796875 200.574219 246.796875 " fill-opacity="1" fill-rule="nonzero"/><path fill="#000000" d="M 70.476562 127.246094 C 70.464844 127.246094 70.449219 127.242188 70.4375 127.242188 C 70.1875 127.222656 70.007812 127 70.027344 126.753906 C 71.4375 111.039062 75.804688 95.96875 83 81.960938 C 83.117188 81.738281 83.386719 81.652344 83.609375 81.765625 C 83.828125 81.878906 83.917969 82.148438 83.804688 82.371094 C 76.660156 96.277344 72.328125 111.238281 70.925781 126.835938 C 70.90625 127.070312 70.707031 127.246094 70.476562 127.246094 " fill-opacity="1" fill-rule="nonzero"/><path fill="#000000" d="M 66.105469 118.578125 C 66.078125 118.578125 66.054688 118.574219 66.03125 118.570312 C 65.785156 118.53125 65.617188 118.300781 65.660156 118.054688 C 66.859375 110.792969 68.726562 103.605469 71.210938 96.6875 C 71.296875 96.453125 71.554688 96.332031 71.789062 96.417969 C 72.023438 96.5 72.144531 96.757812 72.0625 96.992188 C 69.59375 103.859375 67.738281 110.992188 66.546875 118.199219 C 66.511719 118.421875 66.320312 118.578125 66.105469 118.578125 " fill-opacity="1" fill-rule="nonzero"/><path fill="#ffffff" d="M 284.738281 84.015625 L 265.949219 102.480469 L 284.738281 84.015625 " fill-opacity="1" fill-rule="nonzero"/><path fill="#000000" d="M 265.953125 102.929688 C 265.835938 102.929688 265.71875 102.886719 265.628906 102.792969 C 265.457031 102.617188 265.457031 102.332031 265.636719 102.160156 L 284.421875 83.695312 C 284.601562 83.519531 284.886719 83.523438 285.0625 83.699219 C 285.234375 83.875 285.234375 84.160156 285.054688 84.335938 L 266.269531 102.800781 C 266.179688 102.886719 266.066406 102.929688 265.953125 102.929688 " fill-opacity="1" fill-rule="nonzero"/><path fill="#ffffff" d="M 284.613281 73.875 L 274.722656 83.59375 L 284.613281 73.875 " fill-opacity="1" fill-rule="nonzero"/><path fill="#000000" d="M 274.722656 84.039062 C 274.609375 84.039062 274.492188 83.996094 274.402344 83.90625 C 274.230469 83.730469 274.230469 83.445312 274.40625 83.269531 L 284.296875 73.550781 C 284.472656 73.378906 284.757812 73.378906 284.933594 73.554688 C 285.109375 73.734375 285.105469 74.019531 284.929688 74.191406 L 275.039062 83.910156 C 274.953125 83.996094 274.839844 84.039062 274.722656 84.039062 " fill-opacity="1" fill-rule="nonzero"/><path fill="#000000" d="M 170.285156 239.929688 C 170.171875 239.929688 170.0625 239.886719 169.976562 239.800781 C 169.792969 239.632812 169.789062 239.347656 169.960938 239.167969 L 171.378906 237.6875 C 171.550781 237.507812 171.835938 237.5 172.015625 237.671875 C 172.195312 237.84375 172.199219 238.128906 172.03125 238.308594 L 170.613281 239.789062 C 170.523438 239.878906 170.40625 239.929688 170.285156 239.929688 " fill-opacity="1" fill-rule="nonzero"/><path fill="#000000" d="M 165.320312 245.105469 C 165.210938 245.105469 165.097656 245.066406 165.007812 244.980469 C 164.828125 244.808594 164.824219 244.523438 164.996094 244.347656 L 166.414062 242.867188 C 166.585938 242.6875 166.871094 242.679688 167.050781 242.851562 C 167.230469 243.023438 167.238281 243.308594 167.066406 243.488281 L 165.648438 244.96875 C 165.558594 245.058594 165.441406 245.105469 165.320312 245.105469 " fill-opacity="1" fill-rule="nonzero"/><path fill="#000000" d="M 166.714844 240.007812 C 166.597656 240.007812 166.484375 239.964844 166.398438 239.878906 L 164.957031 238.460938 C 164.78125 238.289062 164.777344 238 164.953125 237.824219 C 165.125 237.648438 165.414062 237.644531 165.589844 237.820312 L 167.027344 239.234375 C 167.207031 239.410156 167.207031 239.695312 167.035156 239.871094 C 166.945312 239.960938 166.832031 240.007812 166.714844 240.007812 " fill-opacity="1" fill-rule="nonzero"/><path fill="#000000" d="M 171.75 244.964844 C 171.636719 244.964844 171.523438 244.921875 171.4375 244.835938 L 169.996094 243.417969 C 169.820312 243.242188 169.816406 242.960938 169.992188 242.78125 C 170.167969 242.605469 170.453125 242.601562 170.628906 242.777344 L 172.070312 244.195312 C 172.246094 244.367188 172.246094 244.652344 172.074219 244.828125 C 171.984375 244.917969 171.867188 244.964844 171.75 244.964844 " fill-opacity="1" fill-rule="nonzero"/><path fill="#000000" d="M 300.023438 201.308594 C 298.855469 201.835938 298.324219 203.234375 298.839844 204.429688 C 299.089844 205.011719 299.550781 205.460938 300.132812 205.6875 C 300.699219 205.90625 301.320312 205.890625 301.878906 205.640625 C 303.046875 205.117188 303.578125 203.714844 303.0625 202.519531 C 302.8125 201.9375 302.351562 201.488281 301.769531 201.265625 C 301.199219 201.042969 300.582031 201.058594 300.023438 201.308594 Z M 300.953125 206.742188 C 300.566406 206.742188 300.179688 206.667969 299.808594 206.523438 C 299 206.210938 298.359375 205.59375 298.011719 204.785156 C 297.304688 203.144531 298.039062 201.214844 299.65625 200.488281 C 300.433594 200.140625 301.300781 200.117188 302.09375 200.425781 C 302.90625 200.738281 303.542969 201.355469 303.890625 202.164062 C 304.601562 203.808594 303.863281 205.734375 302.246094 206.460938 C 301.832031 206.648438 301.394531 206.742188 300.953125 206.742188 " fill-opacity="1" fill-rule="nonzero"/><path fill="#99b9ff" d="M 271.199219 26.171875 L 179.742188 26.171875 C 177.707031 26.171875 176.058594 27.816406 176.058594 29.847656 L 176.058594 65.382812 C 176.058594 67.410156 177.707031 69.058594 179.742188 69.058594 L 271.199219 69.058594 C 273.230469 69.058594 274.878906 67.410156 274.878906 65.382812 L 274.878906 29.847656 C 274.878906 27.816406 273.230469 26.171875 271.199219 26.171875 " fill-opacity="1" fill-rule="nonzero"/><path fill="#000000" d="M 179.742188 26.621094 C 177.960938 26.621094 176.511719 28.070312 176.511719 29.847656 L 176.511719 65.382812 C 176.511719 67.160156 177.960938 68.609375 179.742188 68.609375 L 271.195312 68.609375 C 272.976562 68.609375 274.429688 67.160156 274.429688 65.382812 L 274.429688 29.847656 C 274.429688 28.070312 272.976562 26.621094 271.195312 26.621094 Z M 271.195312 69.507812 L 179.742188 69.507812 C 177.464844 69.507812 175.609375 67.65625 175.609375 65.382812 L 175.609375 29.847656 C 175.609375 27.570312 177.464844 25.722656 179.742188 25.722656 L 271.195312 25.722656 C 273.472656 25.722656 275.328125 27.570312 275.328125 29.847656 L 275.328125 65.382812 C 275.328125 67.65625 273.472656 69.507812 271.195312 69.507812 " fill-opacity="1" fill-rule="nonzero"/><path fill="#ffffff" d="M 272.011719 32.648438 L 179.179688 32.648438 C 178.929688 32.648438 178.726562 32.449219 178.726562 32.199219 C 178.726562 31.949219 178.929688 31.75 179.179688 31.75 L 272.011719 31.75 C 272.261719 31.75 272.464844 31.949219 272.464844 32.199219 C 272.464844 32.449219 272.261719 32.648438 272.011719 32.648438 " fill-opacity="1" fill-rule="nonzero"/><path fill="#ffffff" d="M 182.621094 29 C 182.621094 29.519531 182.199219 29.941406 181.679688 29.941406 C 181.15625 29.941406 180.734375 29.519531 180.734375 29 C 180.734375 28.480469 181.15625 28.054688 181.679688 28.054688 C 182.199219 28.054688 182.621094 28.480469 182.621094 29 " fill-opacity="1" fill-rule="nonzero"/><path fill="#ffffff" d="M 186.398438 29 C 186.398438 29.519531 185.976562 29.941406 185.453125 29.941406 C 184.933594 29.941406 184.511719 29.519531 184.511719 29 C 184.511719 28.480469 184.933594 28.054688 185.453125 28.054688 C 185.976562 28.054688 186.398438 28.480469 186.398438 29 " fill-opacity="1" fill-rule="nonzero"/><path fill="#ffffff" d="M 190.175781 29 C 190.175781 29.519531 189.753906 29.941406 189.234375 29.941406 C 188.710938 29.941406 188.289062 29.519531 188.289062 29 C 188.289062 28.480469 188.710938 28.054688 189.234375 28.054688 C 189.753906 28.054688 190.175781 28.480469 190.175781 29 " fill-opacity="1" fill-rule="nonzero"/><path fill="#ffffff" d="M 272.011719 29.351562 L 266.605469 29.351562 C 266.355469 29.351562 266.15625 29.148438 266.15625 28.902344 C 266.15625 28.652344 266.355469 28.449219 266.605469 28.449219 L 272.011719 28.449219 C 272.261719 28.449219 272.464844 28.652344 272.464844 28.902344 C 272.464844 29.148438 272.261719 29.351562 272.011719 29.351562 " fill-opacity="1" fill-rule="nonzero"/><path fill="#ffffff" d="M 264.199219 29.351562 L 203.210938 29.351562 C 202.964844 29.351562 202.761719 29.148438 202.761719 28.902344 C 202.761719 28.652344 202.964844 28.449219 203.210938 28.449219 L 264.199219 28.449219 C 264.449219 28.449219 264.652344 28.652344 264.652344 28.902344 C 264.652344 29.148438 264.449219 29.351562 264.199219 29.351562 " fill-opacity="1" fill-rule="nonzero"/><path fill="#ffffff" d="M 197.203125 29.351562 L 192.699219 29.351562 C 192.449219 29.351562 192.246094 29.148438 192.246094 28.902344 C 192.246094 28.652344 192.449219 28.449219 192.699219 28.449219 L 197.203125 28.449219 C 197.453125 28.449219 197.65625 28.652344 197.65625 28.902344 C 197.65625 29.148438 197.453125 29.351562 197.203125 29.351562 " fill-opacity="1" fill-rule="nonzero"/><path fill="#ffffff" d="M 205.917969 61.742188 L 181.882812 61.742188 L 181.882812 37.746094 L 205.917969 37.746094 L 205.917969 61.742188 " fill-opacity="1" fill-rule="nonzero"/><path fill="#caddff" d="M 215.53125 43.144531 L 210.421875 43.144531 L 210.421875 37.746094 L 215.53125 37.746094 L 215.53125 43.144531 " fill-opacity="1" fill-rule="nonzero"/><path fill="#ffffff" d="M 269.609375 43.144531 L 219.136719 43.144531 L 219.136719 37.746094 L 269.609375 37.746094 L 269.609375 43.144531 " fill-opacity="1" fill-rule="nonzero"/><path fill="#caddff" d="M 215.53125 52.441406 L 210.421875 52.441406 L 210.421875 47.34375 L 215.53125 47.34375 L 215.53125 52.441406 " fill-opacity="1" fill-rule="nonzero"/><path fill="#ffffff" d="M 269.609375 52.441406 L 219.136719 52.441406 L 219.136719 47.046875 L 269.609375 47.046875 L 269.609375 52.441406 " fill-opacity="1" fill-rule="nonzero"/><path fill="#caddff" d="M 215.53125 62.039062 L 210.421875 62.039062 L 210.421875 56.640625 L 215.53125 56.640625 L 215.53125 62.039062 " fill-opacity="1" fill-rule="nonzero"/><path fill="#ffffff" d="M 269.609375 61.742188 L 219.132812 61.742188 L 219.132812 56.640625 L 269.609375 56.640625 L 269.609375 61.742188 " fill-opacity="1" fill-rule="nonzero"/><path fill="#99b9ff" d="M 142.058594 73.507812 C 141.847656 73.207031 141.847656 72.8125 142.058594 72.511719 C 142.347656 72.089844 142.503906 71.640625 142.503906 71.167969 C 142.503906 68.976562 139.105469 67.199219 134.910156 67.199219 C 130.714844 67.199219 127.3125 68.976562 127.3125 71.167969 C 127.3125 71.640625 127.472656 72.089844 127.761719 72.511719 C 127.96875 72.8125 127.96875 73.207031 127.761719 73.507812 C 127.472656 73.929688 127.3125 74.378906 127.3125 74.851562 C 127.3125 75.890625 128.082031 76.835938 129.332031 77.546875 C 129.304688 77.664062 129.289062 77.78125 129.289062 77.90625 C 129.289062 79.527344 131.804688 80.839844 134.910156 80.839844 C 138.011719 80.839844 140.53125 79.527344 140.53125 77.90625 C 140.53125 77.78125 140.515625 77.664062 140.484375 77.546875 C 141.738281 76.835938 142.503906 75.890625 142.503906 74.851562 C 142.503906 74.378906 142.347656 73.929688 142.058594 73.507812 " fill-opacity="1" fill-rule="nonzero"/><path fill="#000000" d="M 134.910156 67.648438 C 131.035156 67.648438 127.765625 69.261719 127.765625 71.167969 C 127.765625 71.535156 127.886719 71.902344 128.132812 72.253906 C 128.449219 72.714844 128.449219 73.304688 128.132812 73.765625 C 127.886719 74.117188 127.765625 74.484375 127.765625 74.851562 C 127.765625 75.683594 128.402344 76.5 129.554688 77.152344 L 129.847656 77.316406 L 129.769531 77.644531 C 129.75 77.738281 129.738281 77.820312 129.738281 77.902344 C 129.738281 79.253906 132.105469 80.390625 134.910156 80.390625 C 137.710938 80.390625 140.078125 79.253906 140.078125 77.902344 C 140.078125 77.820312 140.070312 77.738281 140.046875 77.648438 L 139.96875 77.316406 L 140.265625 77.152344 C 141.417969 76.5 142.054688 75.683594 142.054688 74.851562 C 142.054688 74.484375 141.929688 74.117188 141.6875 73.765625 C 141.371094 73.304688 141.371094 72.714844 141.6875 72.253906 C 141.929688 71.902344 142.054688 71.535156 142.054688 71.167969 C 142.054688 69.261719 138.78125 67.648438 134.910156 67.648438 Z M 134.910156 81.289062 C 131.503906 81.289062 128.839844 79.804688 128.839844 77.902344 C 128.839844 77.863281 128.839844 77.820312 128.84375 77.777344 C 127.5625 76.976562 126.863281 75.949219 126.863281 74.851562 C 126.863281 74.300781 127.039062 73.761719 127.390625 73.253906 C 127.492188 73.101562 127.492188 72.917969 127.390625 72.765625 C 127.039062 72.257812 126.863281 71.71875 126.863281 71.167969 C 126.863281 68.691406 130.398438 66.75 134.910156 66.75 C 139.421875 66.75 142.953125 68.691406 142.953125 71.167969 C 142.953125 71.71875 142.777344 72.257812 142.429688 72.765625 C 142.324219 72.917969 142.324219 73.101562 142.429688 73.253906 C 142.777344 73.761719 142.953125 74.300781 142.953125 74.851562 C 142.953125 75.949219 142.253906 76.976562 140.976562 77.777344 C 140.980469 77.820312 140.980469 77.863281 140.980469 77.902344 C 140.980469 79.804688 138.3125 81.289062 134.910156 81.289062 " fill-opacity="1" fill-rule="nonzero"/><path fill="#ffffff" d="M 155.527344 40.746094 C 155.527344 29.511719 146.15625 19.925781 134.898438 19.925781 C 123.664062 19.925781 114.398438 29.25 114.324219 40.464844 C 114.285156 46.175781 117.042969 51.488281 120.808594 55.207031 C 123.519531 57.886719 125.5 61.21875 126.460938 64.910156 L 126.507812 65.089844 C 127.4375 68.667969 130.675781 71.167969 134.382812 71.167969 L 135.902344 71.167969 C 139.609375 71.167969 142.847656 68.667969 143.78125 65.089844 L 143.808594 64.980469 C 144.761719 61.316406 146.660156 57.953125 149.375 55.308594 C 153.167969 51.613281 155.527344 46.457031 155.527344 40.746094 " fill-opacity="1" fill-rule="nonzero"/><path fill="#000000" d="M 134.898438 20.375 C 123.875 20.375 114.847656 29.390625 114.773438 40.46875 C 114.738281 45.609375 117.054688 50.867188 121.125 54.886719 C 123.933594 57.664062 125.933594 61.089844 126.898438 64.796875 L 126.941406 64.976562 C 127.824219 68.355469 130.882812 70.71875 134.382812 70.71875 L 135.902344 70.71875 C 139.40625 70.71875 142.464844 68.355469 143.34375 64.972656 L 143.375 64.867188 C 144.363281 61.0625 146.332031 57.648438 149.0625 54.988281 C 152.9375 51.210938 155.074219 46.152344 155.074219 40.746094 C 155.074219 29.703125 145.835938 20.375 134.898438 20.375 Z M 135.902344 71.617188 L 134.382812 71.617188 C 130.472656 71.617188 127.054688 68.980469 126.070312 65.199219 L 126.023438 65.023438 C 125.101562 61.472656 123.1875 58.1875 120.488281 55.527344 C 116.25 51.335938 113.835938 45.84375 113.871094 40.460938 C 113.910156 34.914062 116.125 29.660156 120.105469 25.671875 C 124.101562 21.675781 129.355469 19.472656 134.898438 19.472656 C 146.324219 19.472656 155.976562 29.214844 155.976562 40.746094 C 155.976562 46.398438 153.742188 51.683594 149.691406 55.632812 C 147.078125 58.175781 145.195312 61.449219 144.246094 65.09375 L 144.21875 65.199219 C 143.234375 68.980469 139.816406 71.617188 135.902344 71.617188 " fill-opacity="1" fill-rule="nonzero"/><path fill="#000000" d="M 138.125 37.207031 C 137.847656 37.460938 137.601562 37.769531 137.386719 38.140625 C 135.941406 40.6875 136.40625 42.042969 136.816406 42.625 C 137.234375 43.222656 137.960938 43.535156 138.667969 43.414062 C 139.226562 43.324219 139.632812 42.972656 139.78125 42.457031 C 140.308594 40.613281 139.421875 38.476562 138.125 37.207031 Z M 132.03125 37.386719 C 131.398438 38.113281 130.886719 39.101562 130.515625 40.324219 C 130.097656 41.6875 130.230469 42.835938 130.871094 43.480469 C 131.285156 43.894531 131.863281 44.042969 132.414062 43.875 C 133.097656 43.667969 133.59375 43.035156 133.777344 42.136719 C 134.046875 40.789062 133.304688 38.160156 132.03125 37.386719 Z M 136.054688 68.707031 C 135.804688 68.703125 135.605469 68.503906 135.605469 68.253906 C 135.648438 57.289062 142.058594 44.921875 143.34375 42.554688 C 144.101562 41.15625 144.390625 40.015625 144.230469 39.0625 C 143.992188 37.65625 143.269531 36.75 142.09375 36.371094 C 141.257812 36.105469 139.976562 36.074219 138.867188 36.675781 C 140.300781 38.152344 141.269531 40.53125 140.644531 42.707031 C 140.402344 43.554688 139.71875 44.152344 138.816406 44.304688 C 137.769531 44.480469 136.695312 44.019531 136.074219 43.140625 C 135.546875 42.386719 134.914062 40.675781 136.605469 37.695312 C 136.839844 37.28125 137.117188 36.925781 137.421875 36.632812 C 137.390625 36.613281 137.363281 36.59375 137.335938 36.574219 C 136.492188 36.042969 135.101562 35.65625 133.734375 36.164062 C 133.367188 36.300781 133.019531 36.496094 132.695312 36.75 C 134.222656 37.875 134.984375 40.710938 134.660156 42.316406 C 134.410156 43.550781 133.6875 44.433594 132.675781 44.738281 C 131.8125 44.996094 130.875 44.757812 130.234375 44.117188 C 129.347656 43.230469 129.136719 41.753906 129.652344 40.0625 C 130.054688 38.746094 130.578125 37.773438 131.136719 37.054688 C 128.894531 36.46875 127.335938 37.542969 126.90625 38.589844 C 126.402344 39.839844 126.585938 41.324219 127.390625 42.46875 C 129.269531 45.15625 133.671875 52.992188 133.886719 67.75 C 133.890625 68 133.691406 68.203125 133.441406 68.207031 C 133.441406 68.207031 133.4375 68.207031 133.4375 68.207031 C 133.191406 68.207031 132.988281 68.011719 132.984375 67.765625 C 132.773438 53.253906 128.484375 45.601562 126.652344 42.984375 C 125.660156 41.570312 125.445312 39.800781 126.070312 38.253906 C 126.761719 36.550781 129.078125 35.402344 131.8125 36.320312 C 132.371094 35.808594 132.929688 35.503906 133.417969 35.324219 C 135.09375 34.699219 136.789062 35.167969 137.816406 35.8125 C 137.929688 35.886719 138.042969 35.964844 138.15625 36.046875 C 139.570312 35.152344 141.28125 35.167969 142.367188 35.515625 C 143.871094 35.996094 144.824219 37.171875 145.117188 38.910156 C 145.320312 40.082031 145.007812 41.378906 144.136719 42.980469 C 142.871094 45.316406 136.550781 57.511719 136.507812 68.257812 C 136.503906 68.507812 136.304688 68.707031 136.054688 68.707031 " fill-opacity="1" fill-rule="nonzero"/><path fill="#000000" d="M 144.351562 53.964844 C 144.203125 53.964844 144.054688 53.890625 143.96875 53.753906 C 143.839844 53.546875 143.902344 53.265625 144.113281 53.136719 C 147.742188 50.855469 150.355469 47.152344 151.28125 42.980469 C 151.335938 42.734375 151.578125 42.582031 151.820312 42.636719 C 152.0625 42.691406 152.214844 42.929688 152.164062 43.171875 C 151.183594 47.582031 148.425781 51.492188 144.589844 53.898438 C 144.515625 53.945312 144.433594 53.964844 144.351562 53.964844 " fill-opacity="1" fill-rule="nonzero"/><path fill="#000000" d="M 122.167969 51.609375 C 122.042969 51.609375 121.921875 51.558594 121.832031 51.457031 C 119.0625 48.347656 117.535156 44.335938 117.535156 40.171875 C 117.535156 33.671875 121.160156 27.835938 126.992188 24.945312 C 127.214844 24.835938 127.484375 24.925781 127.59375 25.148438 C 127.707031 25.371094 127.617188 25.640625 127.390625 25.75 C 121.867188 28.488281 118.4375 34.015625 118.4375 40.171875 C 118.4375 44.117188 119.882812 47.914062 122.503906 50.859375 C 122.671875 51.046875 122.652344 51.332031 122.46875 51.496094 C 122.382812 51.570312 122.273438 51.609375 122.167969 51.609375 " fill-opacity="1" fill-rule="nonzero"/><path fill="#ffffff" d="M 136.207031 73.738281 C 135.992188 73.738281 135.800781 73.582031 135.765625 73.363281 C 135.722656 73.117188 135.886719 72.886719 136.132812 72.84375 C 136.820312 72.726562 137.488281 72.578125 138.121094 72.398438 C 138.359375 72.332031 138.609375 72.472656 138.679688 72.710938 C 138.746094 72.949219 138.605469 73.199219 138.367188 73.265625 C 137.703125 73.449219 137.003906 73.609375 136.285156 73.730469 C 136.257812 73.734375 136.234375 73.738281 136.207031 73.738281 " fill-opacity="1" fill-rule="nonzero"/><path fill="#ffffff" d="M 133.007812 77.636719 C 132.757812 77.636719 132.558594 77.4375 132.554688 77.191406 C 132.554688 76.941406 132.753906 76.738281 133 76.738281 C 134.558594 76.722656 136.84375 76.507812 138.878906 75.558594 C 139.105469 75.449219 139.375 75.546875 139.480469 75.773438 C 139.585938 76 139.488281 76.265625 139.261719 76.371094 C 137.078125 77.390625 134.65625 77.621094 133.007812 77.636719 " fill-opacity="1" fill-rule="nonzero"/><path fill="#000000" d="M 135.011719 15.480469 C 135.007812 15.480469 135.007812 15.480469 135.003906 15.480469 C 134.753906 15.472656 134.554688 15.269531 134.5625 15.019531 L 134.75 6.035156 C 134.753906 5.789062 134.953125 5.59375 135.199219 5.59375 C 135.203125 5.59375 135.207031 5.59375 135.207031 5.59375 C 135.457031 5.597656 135.65625 5.804688 135.648438 6.050781 L 135.460938 15.039062 C 135.457031 15.285156 135.257812 15.480469 135.011719 15.480469 " fill-opacity="1" fill-rule="nonzero"/><path fill="#000000" d="M 108.921875 33.785156 L 103.171875 33.78125 C 102.921875 33.78125 102.722656 33.582031 102.722656 33.332031 C 102.722656 33.082031 102.921875 32.882812 103.171875 32.882812 L 108.921875 32.886719 C 109.167969 32.886719 109.371094 33.085938 109.371094 33.335938 C 109.371094 33.585938 109.167969 33.785156 108.921875 33.785156 " fill-opacity="1" fill-rule="nonzero"/><path fill="#000000" d="M 114.222656 21.789062 C 114.152344 21.789062 114.078125 21.769531 114.007812 21.730469 L 107.527344 18.226562 C 107.308594 18.109375 107.226562 17.835938 107.347656 17.617188 C 107.464844 17.398438 107.738281 17.316406 107.957031 17.433594 L 114.441406 20.941406 C 114.65625 21.0625 114.738281 21.332031 114.621094 21.550781 C 114.539062 21.703125 114.382812 21.789062 114.222656 21.789062 " fill-opacity="1" fill-rule="nonzero"/><path fill="#000000" d="M 160.898438 33.785156 C 160.652344 33.785156 160.449219 33.585938 160.449219 33.335938 C 160.449219 33.085938 160.648438 32.886719 160.898438 32.886719 L 166.644531 32.882812 C 166.644531 32.882812 166.644531 32.882812 166.648438 32.882812 C 166.894531 32.882812 167.097656 33.082031 167.097656 33.332031 C 167.097656 33.582031 166.898438 33.78125 166.648438 33.78125 L 160.898438 33.785156 " fill-opacity="1" fill-rule="nonzero"/><path fill="#000000" d="M 155.597656 21.789062 C 155.433594 21.789062 155.28125 21.703125 155.199219 21.550781 C 155.082031 21.332031 155.160156 21.0625 155.378906 20.941406 L 161.863281 17.433594 C 162.082031 17.316406 162.355469 17.398438 162.472656 17.617188 C 162.59375 17.835938 162.511719 18.109375 162.292969 18.226562 L 155.808594 21.730469 C 155.742188 21.769531 155.667969 21.789062 155.597656 21.789062 " fill-opacity="1" fill-rule="nonzero"/><path fill="#99b9ff" d="M 74.84375 223.910156 C 73.519531 228.433594 71.441406 234.691406 73.742188 237.695312 C 77.921875 243.15625 81.390625 242.28125 86.550781 240.402344 C 96.867188 236.644531 113.335938 230.714844 118.144531 234.011719 L 118.359375 223.910156 L 74.84375 223.910156 " fill-opacity="1" fill-rule="nonzero"/><path fill="#000000" d="M 150.21875 240.421875 C 148.4375 227.179688 147.109375 218.703125 147.109375 218.703125 L 87.199219 208.316406 L 81.21875 225.25 C 79.429688 230.378906 76.976562 237.960938 74.691406 247.292969 C 74.511719 248.023438 74.308594 248.871094 74.097656 249.777344 C 73.777344 251.140625 74.699219 252.492188 76.089844 252.6875 C 99.339844 256.007812 125.3125 253.296875 148.933594 242.722656 C 149.824219 242.324219 150.351562 241.386719 150.21875 240.421875 " fill-opacity="1" fill-rule="nonzero"/><path fill="#5479f7" d="M 134.023438 127.035156 C 142.59375 126.996094 150.425781 131.832031 154.175781 139.476562 C 158.519531 148.332031 164.652344 171.503906 164.890625 181.621094 C 165.308594 199.3125 149.785156 200.308594 149.324219 200.335938 C 149.320312 200.335938 149.316406 200.339844 149.316406 200.34375 C 149.363281 200.855469 151.175781 220.078125 151.320312 223.488281 C 151.582031 229.730469 139.988281 239.46875 126.671875 234.671875 C 113.421875 229.898438 77.222656 220.386719 73.542969 228.484375 C 73.539062 228.496094 73.523438 228.492188 73.527344 228.480469 L 88.710938 172.238281 C 88.714844 172.234375 88.710938 172.226562 88.703125 172.226562 L 76.234375 172.828125 C 76.234375 172.828125 76.234375 172.828125 76.230469 172.828125 L 66.078125 166.964844 C 66.074219 166.964844 66.070312 166.957031 66.074219 166.953125 L 68.644531 155.585938 C 73.527344 136.164062 86.59375 127.253906 103.457031 127.175781 L 134.023438 127.035156 " fill-opacity="1" fill-rule="nonzero"/><path fill="#ffffff" d="M 94.046875 170.421875 C 91.714844 169.992188 92.351562 167.296875 84.167969 166.808594 C 60.542969 165.402344 71.992188 153.429688 85.523438 155.710938 C 90.011719 156.464844 91.773438 159.363281 93.460938 160.097656 C 107.621094 166.265625 98.691406 171.277344 94.046875 170.421875 " fill-opacity="1" fill-rule="nonzero"/><path fill="#000000" d="M 94.128906 169.980469 C 96.472656 170.414062 99.984375 169.222656 100.582031 167.269531 C 101.199219 165.261719 98.539062 162.796875 93.28125 160.507812 C 92.679688 160.246094 92.101562 159.761719 91.429688 159.203125 C 90.066406 158.0625 88.371094 156.644531 85.449219 156.152344 C 79.265625 155.109375 73.5625 157.09375 71.625 159.617188 C 70.949219 160.492188 70.792969 161.347656 71.160156 162.152344 C 71.644531 163.214844 73.886719 165.746094 84.195312 166.359375 C 89.839844 166.695312 91.425781 168.074219 92.585938 169.082031 C 93.105469 169.53125 93.484375 169.859375 94.128906 169.980469 Z M 95.183594 170.96875 C 94.761719 170.96875 94.351562 170.933594 93.964844 170.863281 C 93.078125 170.699219 92.550781 170.242188 91.992188 169.757812 C 90.933594 168.835938 89.480469 167.574219 84.140625 167.257812 C 76.425781 166.796875 71.527344 165.117188 70.339844 162.527344 C 69.835938 161.425781 70.039062 160.199219 70.910156 159.066406 C 73.011719 156.335938 79.082031 154.167969 85.601562 155.265625 C 88.761719 155.800781 90.636719 157.367188 92.007812 158.511719 C 92.625 159.03125 93.160156 159.472656 93.640625 159.683594 C 101.085938 162.929688 101.996094 165.742188 101.445312 167.53125 C 100.792969 169.65625 97.777344 170.96875 95.183594 170.96875 " fill-opacity="1" fill-rule="nonzero"/><path fill="#ffffff" d="M 123.785156 130.347656 C 124.574219 129.671875 124.160156 128.386719 123.125 128.261719 L 121.523438 128.070312 C 119.804688 127.863281 118.367188 126.71875 117.808594 125.140625 L 115.167969 105.6875 L 109.757812 107.617188 L 102.597656 104.085938 L 103.238281 124.871094 C 103.1875 126.683594 102.003906 128.285156 100.253906 128.910156 L 98.160156 129.65625 C 97.058594 130.046875 97.003906 131.539062 98.074219 132.003906 C 102.335938 133.859375 119.65625 133.875 123.785156 130.347656 " fill-opacity="1" fill-rule="nonzero"/><path fill="#000000" d="M 103.070312 104.820312 L 103.6875 124.855469 C 103.632812 126.894531 102.339844 128.640625 100.402344 129.332031 L 98.308594 130.078125 C 97.972656 130.199219 97.765625 130.476562 97.753906 130.820312 C 97.742188 131.160156 97.929688 131.449219 98.253906 131.589844 C 102.1875 133.304688 119.496094 133.417969 123.492188 130.003906 C 123.71875 129.8125 123.800781 129.53125 123.714844 129.246094 C 123.644531 129.015625 123.4375 128.753906 123.070312 128.710938 L 121.46875 128.515625 C 119.574219 128.289062 118.007812 127.050781 117.382812 125.289062 C 117.375 125.261719 117.367188 125.230469 117.363281 125.199219 L 114.796875 106.296875 L 109.910156 108.042969 C 109.796875 108.085938 109.667969 108.074219 109.558594 108.023438 Z M 108.621094 133.703125 C 103.996094 133.703125 99.730469 133.21875 97.894531 132.417969 C 97.226562 132.125 96.828125 131.503906 96.851562 130.789062 C 96.878906 130.074219 97.320312 129.476562 98.007812 129.234375 L 100.101562 128.484375 C 101.6875 127.917969 102.742188 126.496094 102.789062 124.859375 L 102.148438 104.097656 C 102.140625 103.941406 102.222656 103.789062 102.355469 103.707031 C 102.488281 103.621094 102.65625 103.609375 102.796875 103.679688 L 109.785156 107.132812 L 115.019531 105.261719 C 115.144531 105.21875 115.289062 105.230469 115.402344 105.300781 C 115.519531 105.375 115.597656 105.492188 115.617188 105.628906 L 118.25 125.03125 C 118.769531 126.449219 120.039062 127.4375 121.578125 127.621094 L 123.179688 127.816406 C 123.847656 127.894531 124.382812 128.34375 124.574219 128.984375 C 124.765625 129.613281 124.574219 130.265625 124.082031 130.6875 C 121.5625 132.835938 114.773438 133.703125 108.621094 133.703125 " fill-opacity="1" fill-rule="nonzero"/><path fill="#ffffff" d="M 117.570312 90.21875 C 126.792969 93.609375 125.207031 99.566406 125.207031 99.566406 C 125.089844 101.207031 125.023438 104.207031 125.332031 105.292969 C 125.582031 106.191406 127.058594 107.878906 127.128906 108.378906 C 127.199219 108.875 126.398438 109.898438 124.804688 110.261719 C 124.804688 110.261719 124.195312 118.222656 122.105469 119.527344 C 120.015625 120.832031 111.964844 118.328125 111.964844 118.328125 L 110.609375 117.785156 C 106.246094 116.039062 103.582031 112.410156 102.3125 107.914062 C 102.3125 107.914062 96.4375 82.453125 117.570312 90.21875 " fill-opacity="1" fill-rule="nonzero"/><path fill="#000000" d="M 112.117188 117.902344 C 114.316406 118.585938 120.300781 120.125 121.867188 119.144531 C 123.25 118.285156 124.125 113.21875 124.355469 110.226562 C 124.367188 110.03125 124.511719 109.867188 124.703125 109.824219 C 126.109375 109.503906 126.695312 108.652344 126.679688 108.4375 C 126.644531 108.285156 126.28125 107.757812 126.015625 107.367188 C 125.542969 106.679688 125.050781 105.96875 124.898438 105.414062 C 124.53125 104.121094 124.671875 100.730469 124.757812 99.535156 C 124.757812 99.507812 124.761719 99.476562 124.769531 99.449219 C 124.828125 99.226562 126.109375 93.839844 117.414062 90.640625 C 111.890625 88.613281 107.792969 88.722656 105.234375 90.972656 C 100 95.574219 102.722656 107.691406 102.75 107.8125 C 104.070312 112.484375 106.847656 115.796875 110.777344 117.367188 Z M 120.136719 120.347656 C 117.058594 120.347656 112.480469 118.960938 111.832031 118.757812 C 111.820312 118.753906 111.808594 118.75 111.796875 118.746094 L 110.441406 118.203125 C 106.246094 116.523438 103.28125 113.007812 101.878906 108.035156 C 101.753906 107.496094 99.007812 95.25 104.640625 90.296875 C 107.464844 87.8125 111.867188 87.644531 117.726562 89.796875 C 126.765625 93.121094 125.785156 99.015625 125.652344 99.628906 C 125.535156 101.355469 125.488281 104.195312 125.765625 105.171875 C 125.878906 105.582031 126.367188 106.289062 126.757812 106.859375 C 127.25 107.574219 127.527344 107.996094 127.574219 108.316406 C 127.679688 109.078125 126.753906 110.160156 125.226562 110.617188 C 125.078125 112.277344 124.386719 118.632812 122.34375 119.910156 C 121.839844 120.222656 121.054688 120.347656 120.136719 120.347656 " fill-opacity="1" fill-rule="nonzero"/><path fill="#000000" d="M 114.535156 85.910156 C 116.957031 86.5 119.328125 88.011719 120.582031 88.144531 C 122.601562 88.359375 124.058594 85.773438 126.609375 86.710938 C 128.855469 87.535156 130.113281 89.445312 130.433594 91.589844 C 130.488281 91.949219 130.503906 92.328125 130.46875 92.734375 C 129.992188 98.167969 126.589844 99.320312 125.207031 99.566406 C 125.207031 99.566406 117.199219 98.828125 115.636719 99.203125 C 114.175781 99.558594 111.917969 101.828125 111.238281 105.054688 C 111.148438 105.46875 110.785156 105.773438 110.359375 105.804688 C 109.859375 105.84375 109.40625 105.5 109.320312 105.007812 C 109.054688 103.460938 108.320312 100.363281 106.746094 100.273438 C 104.910156 100.164062 102.570312 103.789062 104.972656 106.0625 C 105.710938 106.765625 105.464844 108.039062 104.515625 108.417969 C 103.730469 108.734375 102.746094 108.753906 101.679688 107.890625 C 101.679688 107.890625 96.9375 99.597656 99.199219 92.59375 C 101.460938 85.59375 111.308594 85.121094 114.535156 85.910156 " fill-opacity="1" fill-rule="nonzero"/><path fill="#000000" d="M 127.410156 108.230469 C 127.289062 108.230469 127.167969 108.183594 127.078125 108.085938 C 126.910156 107.90625 126.921875 107.621094 127.101562 107.453125 C 127.65625 106.9375 128.058594 105.78125 128.125 104.507812 C 128.171875 103.589844 128.046875 102.722656 127.769531 102.070312 C 127.542969 101.542969 127.238281 101.214844 126.949219 101.199219 C 126.488281 101.183594 125.824219 102.003906 125.550781 103.425781 C 125.503906 103.671875 125.269531 103.832031 125.023438 103.785156 C 124.78125 103.738281 124.621094 103.503906 124.667969 103.257812 C 125.015625 101.4375 125.953125 100.246094 126.996094 100.300781 C 127.65625 100.335938 128.226562 100.839844 128.597656 101.722656 C 128.929688 102.496094 129.078125 103.5 129.023438 104.554688 C 128.945312 106.074219 128.445312 107.4375 127.714844 108.109375 C 127.628906 108.191406 127.519531 108.230469 127.410156 108.230469 " fill-opacity="1" fill-rule="nonzero"/><path fill="#000000" d="M 118.855469 104.351562 L 118.859375 104.351562 Z M 121.363281 101.085938 C 120.335938 101.085938 119.398438 102.570312 119.308594 104.375 C 119.257812 105.316406 119.4375 106.207031 119.808594 106.882812 C 120.144531 107.488281 120.589844 107.835938 121.066406 107.859375 C 122.117188 107.910156 123.078125 106.40625 123.175781 104.574219 C 123.222656 103.628906 123.042969 102.742188 122.671875 102.066406 C 122.335938 101.460938 121.890625 101.113281 121.417969 101.089844 C 121.398438 101.085938 121.378906 101.085938 121.363281 101.085938 Z M 121.121094 108.761719 C 121.085938 108.761719 121.054688 108.757812 121.019531 108.757812 C 120.21875 108.71875 119.511719 108.207031 119.019531 107.316406 C 118.566406 106.496094 118.347656 105.4375 118.40625 104.328125 C 118.53125 101.925781 119.878906 100.113281 121.460938 100.191406 C 122.261719 100.230469 122.96875 100.742188 123.460938 101.632812 C 123.914062 102.449219 124.132812 103.511719 124.074219 104.617188 C 123.953125 106.96875 122.664062 108.761719 121.121094 108.761719 " fill-opacity="1" fill-rule="nonzero"/><path fill="#000000" d="M 119.140625 103.113281 C 119.128906 103.113281 119.113281 103.113281 119.101562 103.113281 L 110.300781 102.324219 C 110.054688 102.304688 109.871094 102.085938 109.894531 101.839844 C 109.914062 101.589844 110.132812 101.410156 110.382812 101.429688 L 119.179688 102.214844 C 119.429688 102.238281 119.613281 102.457031 119.589844 102.703125 C 119.570312 102.9375 119.371094 103.113281 119.140625 103.113281 " fill-opacity="1" fill-rule="nonzero"/><path fill="#ffffff" d="M 105.113281 141.074219 C 105.113281 141.074219 108.539062 146.4375 111.625 145.492188 C 113.25 144.992188 114.832031 139.703125 115.476562 139.511719 C 117.546875 138.914062 121.484375 137.929688 123.90625 133.617188 C 126.164062 129.585938 125.671875 127.433594 125.089844 126.449219 C 124.820312 125.992188 124.824219 125.425781 125.121094 124.988281 C 125.554688 124.351562 125.972656 123.390625 125.539062 122.394531 C 125.382812 122.046875 125.398438 121.648438 125.546875 121.300781 C 126.125 119.964844 127.1875 116.894531 125.121094 116.289062 C 124.558594 116.128906 123.953125 116.335938 123.613281 116.804688 C 122.957031 117.710938 121.589844 119.410156 119.894531 120.488281 C 117.5 122.007812 116.066406 123.046875 114.863281 123.730469 C 113.832031 124.316406 113.289062 119.183594 110.8125 117.253906 C 108.617188 115.542969 107.867188 116.410156 107.648438 117.214844 C 107.429688 118.019531 108.789062 118.335938 109.566406 122.164062 C 110.472656 126.640625 109.523438 130.410156 109.246094 132.425781 C 108.925781 134.789062 105.113281 141.074219 105.113281 141.074219 " fill-opacity="1" fill-rule="nonzero"/><path fill="#000000" d="M 105.648438 141.0625 C 106.683594 142.589844 109.351562 145.71875 111.496094 145.0625 C 112.292969 144.816406 113.289062 142.683594 113.945312 141.269531 C 114.628906 139.808594 114.921875 139.207031 115.351562 139.082031 L 115.613281 139.007812 C 117.734375 138.394531 121.28125 137.375 123.511719 133.398438 C 125.695312 129.5 125.195312 127.511719 124.699219 126.675781 C 124.335938 126.058594 124.355469 125.316406 124.75 124.734375 C 125.117188 124.195312 125.480469 123.382812 125.125 122.578125 C 124.925781 122.128906 124.929688 121.597656 125.136719 121.121094 C 125.859375 119.441406 126.074219 118.058594 125.726562 117.320312 C 125.585938 117.023438 125.34375 116.824219 124.992188 116.722656 C 124.617188 116.613281 124.210938 116.75 123.980469 117.070312 C 123.296875 118.011719 121.890625 119.753906 120.136719 120.867188 C 119.097656 121.527344 118.246094 122.089844 117.496094 122.585938 C 116.535156 123.222656 115.777344 123.726562 115.085938 124.121094 C 114.886719 124.234375 114.664062 124.257812 114.453125 124.183594 C 113.898438 123.988281 113.578125 123.167969 113.089844 121.929688 C 112.535156 120.515625 111.773438 118.574219 110.535156 117.609375 C 109.335938 116.675781 108.757812 116.667969 108.523438 116.746094 C 108.269531 116.832031 108.144531 117.113281 108.082031 117.332031 C 108.054688 117.4375 108.113281 117.550781 108.371094 117.9375 C 108.800781 118.589844 109.519531 119.675781 110.007812 122.074219 C 110.785156 125.910156 110.234375 129.207031 109.867188 131.390625 C 109.800781 131.796875 109.738281 132.164062 109.695312 132.484375 C 109.394531 134.671875 106.363281 139.855469 105.648438 141.0625 Z M 110.875 146.054688 C 107.796875 146.054688 104.871094 141.523438 104.734375 141.316406 C 104.640625 141.171875 104.640625 140.988281 104.730469 140.839844 C 104.765625 140.777344 108.496094 134.609375 108.800781 132.363281 C 108.847656 132.035156 108.910156 131.65625 108.980469 131.238281 C 109.332031 129.125 109.867188 125.925781 109.121094 122.253906 C 108.671875 120.027344 108.011719 119.03125 107.621094 118.433594 C 107.324219 117.992188 107.074219 117.609375 107.214844 117.09375 C 107.378906 116.484375 107.742188 116.058594 108.238281 115.894531 C 108.972656 115.648438 109.90625 115.976562 111.089844 116.902344 C 112.523438 118.015625 113.335938 120.089844 113.929688 121.601562 C 114.175781 122.230469 114.507812 123.070312 114.714844 123.296875 C 115.363281 122.921875 116.089844 122.441406 117 121.835938 C 117.75 121.339844 118.605469 120.773438 119.652344 120.105469 C 121.277344 119.074219 122.605469 117.429688 123.25 116.542969 C 123.703125 115.917969 124.503906 115.640625 125.246094 115.859375 C 125.851562 116.035156 126.289062 116.398438 126.542969 116.9375 C 127.136719 118.199219 126.554688 120.101562 125.964844 121.480469 C 125.855469 121.726562 125.851562 121.992188 125.949219 122.214844 C 126.363281 123.152344 126.203125 124.195312 125.496094 125.242188 C 125.300781 125.527344 125.292969 125.90625 125.476562 126.21875 C 126.199219 127.445312 126.582031 129.765625 124.296875 133.835938 C 121.886719 138.136719 117.96875 139.265625 115.863281 139.871094 L 115.65625 139.929688 C 115.472656 140.125 115.082031 140.96875 114.761719 141.648438 C 113.730469 143.863281 112.855469 145.585938 111.757812 145.921875 C 111.464844 146.011719 111.167969 146.054688 110.875 146.054688 " fill-opacity="1" fill-rule="nonzero"/><path fill="#5479f7" d="M 116.402344 143.445312 L 106.027344 136.847656 C 106.027344 136.847656 92 159.484375 81.378906 167.171875 C 76.207031 170.914062 66.175781 166.515625 66.175781 166.515625 C 66.175781 166.515625 56.542969 203.464844 75.132812 208.75 C 106.105469 217.546875 116.402344 143.445312 116.402344 143.445312 " fill-opacity="1" fill-rule="nonzero"/><path fill="#caddff" d="M 147.691406 201.226562 C 135.992188 201.226562 119.160156 191.847656 107.808594 183.40625 C 107.609375 183.257812 107.566406 182.976562 107.714844 182.777344 C 107.863281 182.578125 108.148438 182.535156 108.347656 182.683594 C 120.269531 191.550781 138.25 201.460938 149.699219 200.21875 C 149.945312 200.191406 150.167969 200.371094 150.195312 200.617188 C 150.222656 200.867188 150.042969 201.089844 149.796875 201.113281 C 149.117188 201.1875 148.414062 201.226562 147.691406 201.226562 " fill-opacity="1" fill-rule="nonzero"/><path fill="#caddff" d="M 131.90625 172.753906 C 125.417969 172.753906 113.46875 167.171875 112.914062 166.910156 C 112.6875 166.804688 112.589844 166.535156 112.699219 166.3125 C 112.804688 166.085938 113.074219 165.992188 113.296875 166.09375 C 113.445312 166.164062 128.097656 173.015625 133.503906 171.691406 C 142.59375 169.46875 140.433594 157.84375 140.410156 157.726562 C 140.363281 157.480469 140.523438 157.246094 140.765625 157.195312 C 141.011719 157.148438 141.246094 157.308594 141.292969 157.554688 C 141.320312 157.679688 143.632812 170.144531 133.71875 172.566406 C 133.183594 172.699219 132.574219 172.753906 131.90625 172.753906 " fill-opacity="1" fill-rule="nonzero"/><path fill="#caddff" d="M 80.46875 168.695312 C 80.332031 168.695312 80.195312 168.632812 80.109375 168.515625 C 79.960938 168.316406 80 168.035156 80.199219 167.886719 C 91.375 159.546875 105.226562 136.664062 105.367188 136.433594 C 105.496094 136.21875 105.769531 136.152344 105.984375 136.277344 C 106.199219 136.40625 106.265625 136.683594 106.140625 136.898438 C 106 137.128906 92.054688 160.164062 80.738281 168.605469 C 80.660156 168.667969 80.5625 168.695312 80.46875 168.695312 " fill-opacity="1" fill-rule="nonzero"/><path fill="#caddff" d="M 79.570312 210.285156 C 79.171875 210.285156 78.769531 210.265625 78.367188 210.230469 C 78.121094 210.210938 77.9375 209.992188 77.957031 209.746094 C 77.976562 209.496094 78.199219 209.316406 78.445312 209.335938 C 91.195312 210.4375 100.699219 192.511719 106.433594 177.28125 C 112.242188 161.859375 115.445312 146.015625 115.902344 143.664062 L 111.636719 140.953125 C 111.429688 140.816406 111.367188 140.539062 111.5 140.332031 C 111.632812 140.121094 111.914062 140.058594 112.121094 140.191406 L 116.644531 143.066406 C 116.800781 143.164062 116.882812 143.347656 116.847656 143.527344 C 116.816406 143.703125 113.570312 160.890625 107.28125 177.589844 C 103.582031 187.417969 99.5625 195.164062 95.335938 200.609375 C 90.355469 207.035156 85.054688 210.285156 79.570312 210.285156 " fill-opacity="1" fill-rule="nonzero"/><path fill="#5479f7" d="M 261.941406 204.355469 C 254.234375 202.347656 249.621094 194.480469 251.636719 186.789062 C 253.648438 179.097656 261.527344 174.488281 269.234375 176.5 C 276.941406 178.511719 281.554688 186.375 279.539062 194.070312 C 277.523438 201.761719 269.648438 206.367188 261.941406 204.355469 Z M 292.917969 200.449219 L 294.335938 195.039062 L 288.902344 192.230469 C 289.003906 190.921875 289 189.617188 288.882812 188.335938 L 294.277344 185.464844 L 292.792969 180.074219 L 286.679688 180.355469 C 286.117188 179.183594 285.457031 178.058594 284.710938 176.996094 L 287.949219 171.8125 L 283.960938 167.882812 L 278.816406 171.171875 C 277.753906 170.441406 276.617188 169.800781 275.417969 169.25 L 275.625 163.144531 L 270.207031 161.730469 L 267.394531 167.15625 C 266.082031 167.054688 264.777344 167.058594 263.492188 167.171875 L 260.613281 161.789062 L 255.214844 163.269531 L 255.496094 169.375 C 254.324219 169.933594 253.195312 170.59375 252.132812 171.339844 L 246.9375 168.109375 L 243 172.085938 L 246.296875 177.222656 C 245.566406 178.285156 244.925781 179.417969 244.371094 180.613281 L 238.257812 180.40625 L 236.839844 185.816406 L 242.273438 188.625 C 242.171875 189.9375 242.175781 191.238281 242.292969 192.519531 L 236.902344 195.390625 L 238.382812 200.785156 L 244.496094 200.503906 C 245.058594 201.675781 245.71875 202.796875 246.464844 203.859375 L 243.230469 209.042969 L 247.214844 212.976562 L 252.359375 209.683594 C 253.425781 210.414062 254.558594 211.054688 255.753906 211.605469 L 255.546875 217.710938 L 260.96875 219.125 L 263.78125 213.699219 C 265.09375 213.804688 266.398438 213.796875 267.683594 213.683594 L 270.558594 219.066406 L 275.960938 217.585938 L 275.679688 211.480469 C 276.855469 210.921875 277.976562 210.265625 279.042969 209.515625 L 284.238281 212.746094 L 288.175781 208.769531 L 284.878906 203.632812 C 285.609375 202.570312 286.25 201.4375 286.804688 200.242188 L 292.917969 200.449219 " fill-opacity="1" fill-rule="nonzero"/><path fill="#000000" d="M 264.195312 174.105469 C 257.996094 174.105469 252.316406 178.265625 250.675781 184.527344 C 249.734375 188.132812 250.253906 191.886719 252.136719 195.101562 C 254.023438 198.316406 257.050781 200.605469 260.660156 201.546875 C 264.273438 202.488281 268.035156 201.972656 271.253906 200.089844 C 274.472656 198.207031 276.769531 195.183594 277.710938 191.582031 C 278.65625 187.976562 278.132812 184.222656 276.25 181.007812 C 274.363281 177.792969 271.335938 175.503906 267.726562 174.5625 C 266.546875 174.253906 265.363281 174.105469 264.195312 174.105469 Z M 264.21875 202.90625 C 262.957031 202.90625 261.6875 202.746094 260.433594 202.417969 C 256.589844 201.414062 253.367188 198.976562 251.359375 195.554688 C 249.355469 192.136719 248.800781 188.136719 249.804688 184.300781 C 250.808594 180.464844 253.25 177.246094 256.679688 175.242188 C 260.105469 173.238281 264.109375 172.6875 267.953125 173.691406 C 271.796875 174.695312 275.019531 177.128906 277.027344 180.550781 C 279.035156 183.976562 279.589844 187.972656 278.582031 191.808594 C 277.578125 195.644531 275.136719 198.863281 271.710938 200.867188 C 269.398438 202.214844 266.828125 202.90625 264.21875 202.90625 Z M 254.617188 214.992188 L 259.339844 216.226562 L 261.988281 211.121094 C 262.070312 210.960938 262.238281 210.863281 262.421875 210.878906 C 263.710938 210.980469 265 210.972656 266.25 210.863281 C 266.429688 210.84375 266.601562 210.9375 266.6875 211.097656 L 269.394531 216.164062 L 274.101562 214.871094 L 273.835938 209.128906 C 273.828125 208.949219 273.929688 208.78125 274.089844 208.703125 C 275.238281 208.15625 276.351562 207.503906 277.390625 206.773438 C 277.539062 206.671875 277.734375 206.664062 277.886719 206.761719 L 282.777344 209.800781 L 286.207031 206.335938 L 283.105469 201.5 C 283.007812 201.347656 283.007812 201.152344 283.113281 201.003906 C 283.820312 199.96875 284.457031 198.851562 285 197.679688 C 285.074219 197.515625 285.246094 197.414062 285.425781 197.417969 L 291.179688 197.613281 L 292.414062 192.898438 L 287.300781 190.257812 C 287.136719 190.175781 287.042969 190.003906 287.058594 189.824219 C 287.160156 188.535156 287.152344 187.25 287.039062 186 C 287.023438 185.824219 287.117188 185.648438 287.277344 185.566406 L 292.351562 182.863281 L 291.058594 178.164062 L 285.304688 178.429688 C 285.132812 178.4375 284.957031 178.335938 284.878906 178.175781 C 284.328125 177.027344 283.679688 175.917969 282.945312 174.878906 C 282.839844 174.734375 282.835938 174.535156 282.933594 174.386719 L 285.980469 169.503906 L 282.507812 166.082031 L 277.664062 169.175781 C 277.511719 169.273438 277.316406 169.269531 277.167969 169.167969 C 276.128906 168.460938 275.011719 167.824219 273.835938 167.285156 C 273.671875 167.210938 273.570312 167.042969 273.574219 166.859375 L 273.769531 161.117188 L 269.046875 159.882812 L 266.402344 164.988281 C 266.320312 165.152344 266.144531 165.246094 265.964844 165.230469 C 264.675781 165.128906 263.390625 165.136719 262.136719 165.25 C 261.960938 165.261719 261.785156 165.171875 261.699219 165.011719 L 258.992188 159.945312 L 254.285156 161.234375 L 254.550781 166.980469 C 254.5625 167.160156 254.460938 167.328125 254.296875 167.40625 C 253.148438 167.957031 252.039062 168.605469 250.996094 169.335938 C 250.847656 169.4375 250.652344 169.445312 250.5 169.347656 L 245.613281 166.304688 L 242.179688 169.773438 L 245.28125 174.605469 C 245.378906 174.757812 245.378906 174.957031 245.277344 175.105469 C 244.566406 176.136719 243.929688 177.253906 243.386719 178.429688 C 243.3125 178.59375 243.144531 178.695312 242.960938 178.691406 L 237.207031 178.496094 L 235.972656 183.210938 L 241.085938 185.851562 C 241.25 185.933594 241.34375 186.105469 241.328125 186.285156 C 241.230469 187.574219 241.234375 188.859375 241.347656 190.105469 C 241.363281 190.289062 241.269531 190.460938 241.113281 190.542969 L 236.035156 193.246094 L 237.328125 197.945312 L 243.082031 197.679688 C 243.257812 197.671875 243.433594 197.773438 243.507812 197.933594 C 244.058594 199.078125 244.707031 200.1875 245.441406 201.230469 C 245.542969 201.375 245.550781 201.570312 245.453125 201.726562 L 242.40625 206.605469 L 245.882812 210.027344 L 250.722656 206.933594 C 250.875 206.835938 251.074219 206.835938 251.222656 206.941406 C 252.257812 207.648438 253.375 208.28125 254.550781 208.824219 C 254.714844 208.898438 254.816406 209.066406 254.8125 209.246094 Z M 259.574219 217.199219 C 259.539062 217.199219 259.5 217.195312 259.460938 217.1875 L 254.042969 215.773438 C 253.835938 215.71875 253.695312 215.53125 253.707031 215.324219 L 253.902344 209.515625 C 252.871094 209.023438 251.886719 208.464844 250.960938 207.847656 L 246.0625 210.980469 C 245.886719 211.09375 245.652344 211.070312 245.503906 210.921875 L 241.519531 206.992188 C 241.367188 206.84375 241.339844 206.613281 241.453125 206.433594 L 244.53125 201.5 C 243.898438 200.574219 243.324219 199.597656 242.828125 198.589844 L 237.011719 198.859375 C 236.796875 198.867188 236.609375 198.730469 236.554688 198.527344 L 235.070312 193.136719 C 235.015625 192.933594 235.109375 192.71875 235.292969 192.621094 L 240.425781 189.890625 C 240.339844 188.78125 240.332031 187.648438 240.410156 186.515625 L 235.238281 183.84375 C 235.054688 183.746094 234.957031 183.535156 235.011719 183.332031 L 236.429688 177.921875 C 236.480469 177.714844 236.664062 177.578125 236.878906 177.585938 L 242.695312 177.78125 C 243.1875 176.753906 243.746094 175.765625 244.363281 174.84375 L 241.226562 169.957031 C 241.113281 169.777344 241.140625 169.546875 241.289062 169.398438 L 245.222656 165.417969 C 245.371094 165.269531 245.605469 165.242188 245.78125 165.351562 L 250.722656 168.429688 C 251.652344 167.792969 252.628906 167.222656 253.636719 166.726562 L 253.371094 160.917969 C 253.359375 160.707031 253.496094 160.519531 253.699219 160.464844 L 259.101562 158.984375 C 259.304688 158.925781 259.519531 159.019531 259.617188 159.203125 L 262.355469 164.328125 C 263.464844 164.242188 264.601562 164.238281 265.738281 164.3125 L 268.414062 159.152344 C 268.507812 158.964844 268.722656 158.871094 268.925781 158.921875 L 274.347656 160.335938 C 274.550781 160.390625 274.6875 160.578125 274.683594 160.789062 L 274.484375 166.597656 C 275.515625 167.085938 276.503906 167.644531 277.429688 168.257812 L 282.324219 165.128906 C 282.5 165.015625 282.734375 165.039062 282.882812 165.1875 L 286.867188 169.117188 C 287.019531 169.265625 287.046875 169.496094 286.933594 169.675781 L 283.855469 174.609375 C 284.488281 175.535156 285.0625 176.511719 285.5625 177.515625 L 291.378906 177.25 C 291.585938 177.238281 291.777344 177.375 291.835938 177.578125 L 293.316406 182.972656 C 293.371094 183.175781 293.277344 183.390625 293.09375 183.488281 L 287.964844 186.21875 C 288.046875 187.328125 288.054688 188.460938 287.976562 189.59375 L 293.148438 192.265625 C 293.335938 192.363281 293.429688 192.574219 293.378906 192.78125 L 291.960938 198.1875 C 291.90625 198.390625 291.714844 198.527344 291.511719 198.527344 L 285.691406 198.328125 C 285.199219 199.355469 284.640625 200.339844 284.023438 201.265625 L 287.160156 206.152344 C 287.273438 206.332031 287.25 206.5625 287.101562 206.710938 L 283.164062 210.691406 C 283.015625 210.839844 282.785156 210.867188 282.605469 210.757812 L 277.660156 207.679688 C 276.734375 208.316406 275.757812 208.886719 274.75 209.382812 L 275.019531 215.191406 C 275.027344 215.402344 274.890625 215.589844 274.6875 215.644531 L 269.285156 217.125 C 269.082031 217.183594 268.867188 217.089844 268.765625 216.902344 L 266.03125 211.78125 C 264.921875 211.867188 263.789062 211.871094 262.652344 211.796875 L 259.976562 216.957031 C 259.898438 217.109375 259.742188 217.199219 259.574219 217.199219 " fill-opacity="1" fill-rule="nonzero"/><path fill="#5479f7" d="M 291.214844 158.460938 C 285.78125 157.957031 281.789062 153.152344 282.292969 147.730469 C 282.800781 142.308594 287.613281 138.320312 293.042969 138.828125 C 298.476562 139.332031 302.472656 144.136719 301.964844 149.558594 C 301.457031 154.980469 296.644531 158.96875 291.214844 158.460938 Z M 311.714844 152.390625 L 312.070312 148.578125 L 308.085938 147.28125 C 308.011719 146.382812 307.859375 145.503906 307.640625 144.648438 L 310.964844 142.113281 L 309.363281 138.632812 L 305.265625 139.5 C 304.753906 138.769531 304.183594 138.082031 303.558594 137.449219 L 305.171875 133.585938 L 302.039062 131.371094 L 298.929688 134.164062 C 298.128906 133.789062 297.289062 133.484375 296.417969 133.242188 L 295.882812 129.09375 L 292.058594 128.738281 L 290.761719 132.714844 C 289.863281 132.792969 288.980469 132.941406 288.128906 133.160156 L 285.585938 129.839844 L 282.097656 131.4375 L 282.96875 135.53125 C 282.238281 136.042969 281.546875 136.613281 280.910156 137.234375 L 277.042969 135.625 L 274.824219 138.75 L 277.621094 141.855469 C 277.246094 142.65625 276.941406 143.492188 276.699219 144.359375 L 272.542969 144.898438 L 272.1875 148.714844 L 276.171875 150.007812 C 276.246094 150.90625 276.394531 151.785156 276.617188 152.640625 L 273.289062 155.175781 L 274.894531 158.65625 L 278.992188 157.789062 C 279.503906 158.519531 280.074219 159.207031 280.699219 159.839844 L 279.085938 163.703125 L 282.214844 165.917969 L 285.328125 163.125 C 286.128906 163.5 286.96875 163.804688 287.839844 164.046875 L 288.375 168.195312 L 292.195312 168.550781 L 293.492188 164.574219 C 294.394531 164.5 295.277344 164.351562 296.128906 164.128906 L 298.671875 167.449219 L 302.160156 165.851562 L 301.289062 161.757812 C 302.019531 161.246094 302.710938 160.675781 303.347656 160.054688 L 307.214844 161.664062 L 309.433594 158.539062 L 306.632812 155.429688 C 307.011719 154.632812 307.316406 153.796875 307.558594 152.929688 L 311.714844 152.390625 " fill-opacity="1" fill-rule="nonzero"/><path fill="#000000" d="M 290.90625 137.785156 C 288.714844 137.785156 286.613281 138.539062 284.902344 139.953125 C 282.96875 141.558594 281.769531 143.820312 281.535156 146.320312 C 281.300781 148.824219 282.058594 151.269531 283.667969 153.203125 C 285.273438 155.136719 287.539062 156.332031 290.050781 156.5625 C 290.34375 156.589844 290.636719 156.605469 290.929688 156.605469 C 295.738281 156.605469 299.855469 152.9375 300.3125 148.066406 C 300.542969 145.5625 299.785156 143.121094 298.179688 141.1875 C 296.570312 139.25 294.304688 138.058594 291.796875 137.824219 C 291.5 137.796875 291.203125 137.785156 290.90625 137.785156 Z M 290.929688 157.503906 C 290.613281 157.503906 290.289062 157.488281 289.964844 157.460938 C 287.21875 157.203125 284.738281 155.898438 282.976562 153.777344 C 281.210938 151.660156 280.382812 148.980469 280.640625 146.238281 C 280.894531 143.496094 282.207031 141.015625 284.328125 139.257812 C 286.453125 137.5 289.132812 136.675781 291.878906 136.929688 C 294.628906 137.183594 297.109375 138.492188 298.871094 140.613281 C 300.632812 142.730469 301.460938 145.410156 301.207031 148.152344 C 300.707031 153.488281 296.199219 157.503906 290.929688 157.503906 Z M 310.507812 150.9375 L 310.511719 150.9375 Z M 287.574219 166.332031 L 290.675781 166.621094 L 291.859375 162.984375 C 291.917969 162.8125 292.070312 162.691406 292.25 162.675781 C 293.128906 162.601562 293.988281 162.457031 294.8125 162.242188 C 294.988281 162.199219 295.171875 162.261719 295.285156 162.40625 L 297.605469 165.441406 L 300.4375 164.140625 L 299.644531 160.398438 C 299.605469 160.222656 299.679688 160.042969 299.828125 159.9375 C 300.535156 159.441406 301.207031 158.886719 301.824219 158.285156 C 301.953125 158.15625 302.144531 158.121094 302.3125 158.191406 L 305.847656 159.660156 L 307.652344 157.121094 L 305.09375 154.28125 C 304.972656 154.148438 304.945312 153.953125 305.019531 153.789062 C 305.382812 153.019531 305.683594 152.203125 305.917969 151.359375 C 305.964844 151.183594 306.117188 151.054688 306.296875 151.03125 L 310.09375 150.539062 L 310.382812 147.441406 L 306.738281 146.257812 C 306.570312 146.203125 306.445312 146.046875 306.429688 145.867188 C 306.355469 144.996094 306.210938 144.132812 306 143.3125 C 305.953125 143.136719 306.019531 142.953125 306.164062 142.839844 L 309.199219 140.523438 L 307.902344 137.695312 L 304.152344 138.488281 C 303.972656 138.527344 303.792969 138.457031 303.6875 138.304688 C 303.195312 137.597656 302.636719 136.929688 302.03125 136.3125 C 301.902344 136.183594 301.867188 135.992188 301.9375 135.824219 L 303.410156 132.292969 L 300.867188 130.496094 L 298.023438 133.046875 C 297.886719 133.167969 297.695312 133.199219 297.53125 133.121094 C 296.757812 132.761719 295.9375 132.457031 295.09375 132.226562 C 294.917969 132.175781 294.789062 132.027344 294.765625 131.851562 L 294.273438 128.058594 L 291.171875 127.769531 L 289.984375 131.40625 C 289.929688 131.578125 289.777344 131.699219 289.59375 131.714844 C 288.71875 131.789062 287.859375 131.933594 287.035156 132.144531 C 286.855469 132.191406 286.671875 132.125 286.5625 131.984375 L 284.238281 128.949219 L 281.410156 130.246094 L 282.203125 133.988281 C 282.238281 134.167969 282.167969 134.347656 282.019531 134.453125 C 281.3125 134.945312 280.636719 135.503906 280.023438 136.105469 C 279.894531 136.234375 279.703125 136.269531 279.535156 136.199219 L 275.996094 134.730469 L 274.195312 137.265625 L 276.753906 140.105469 C 276.871094 140.242188 276.902344 140.433594 276.824219 140.597656 C 276.464844 141.367188 276.160156 142.1875 275.925781 143.03125 C 275.878906 143.207031 275.730469 143.335938 275.550781 143.359375 L 271.753906 143.847656 L 271.460938 146.945312 L 275.105469 148.132812 C 275.277344 148.1875 275.402344 148.339844 275.414062 148.519531 C 275.492188 149.394531 275.632812 150.253906 275.847656 151.078125 C 275.890625 151.25 275.828125 151.4375 275.683594 151.546875 L 272.644531 153.867188 L 273.945312 156.691406 L 277.695312 155.898438 C 277.871094 155.863281 278.054688 155.933594 278.15625 156.082031 C 278.652344 156.789062 279.210938 157.460938 279.8125 158.078125 C 279.941406 158.207031 279.976562 158.398438 279.910156 158.5625 L 278.4375 162.09375 L 280.976562 163.894531 L 283.824219 161.339844 C 283.957031 161.21875 284.152344 161.191406 284.316406 161.265625 C 285.085938 161.628906 285.90625 161.929688 286.753906 162.164062 C 286.925781 162.210938 287.058594 162.359375 287.078125 162.539062 Z M 290.992188 167.550781 C 290.980469 167.550781 290.964844 167.550781 290.953125 167.550781 L 287.128906 167.195312 C 286.921875 167.171875 286.75 167.011719 286.726562 166.804688 L 286.226562 162.949219 C 285.527344 162.742188 284.851562 162.496094 284.207031 162.207031 L 281.3125 164.804688 C 281.15625 164.941406 280.921875 164.957031 280.75 164.835938 L 277.621094 162.621094 C 277.449219 162.5 277.382812 162.273438 277.464844 162.082031 L 278.964844 158.488281 C 278.472656 157.972656 278.011719 157.417969 277.59375 156.839844 L 273.78125 157.648438 C 273.574219 157.691406 273.363281 157.585938 273.277344 157.394531 L 271.675781 153.914062 C 271.589844 153.722656 271.644531 153.496094 271.8125 153.371094 L 274.902344 151.011719 C 274.738281 150.324219 274.621094 149.613281 274.542969 148.894531 L 270.839844 147.691406 C 270.640625 147.625 270.515625 147.429688 270.535156 147.222656 L 270.886719 143.40625 C 270.90625 143.199219 271.070312 143.03125 271.277344 143.003906 L 275.140625 142.503906 C 275.347656 141.808594 275.597656 141.132812 275.882812 140.488281 L 273.285156 137.601562 C 273.140625 137.445312 273.128906 137.210938 273.25 137.042969 L 275.46875 133.914062 C 275.589844 133.742188 275.816406 133.679688 276.011719 133.757812 L 279.605469 135.253906 C 280.128906 134.765625 280.679688 134.304688 281.257812 133.886719 L 280.453125 130.082031 C 280.40625 129.875 280.515625 129.667969 280.703125 129.578125 L 284.191406 127.980469 C 284.382812 127.894531 284.609375 127.949219 284.738281 128.117188 L 287.101562 131.203125 C 287.789062 131.039062 288.5 130.917969 289.21875 130.84375 L 290.425781 127.148438 C 290.492188 126.949219 290.6875 126.820312 290.894531 126.839844 L 294.71875 127.195312 C 294.925781 127.214844 295.09375 127.375 295.121094 127.585938 L 295.621094 131.441406 C 296.316406 131.644531 296.992188 131.894531 297.640625 132.183594 L 300.535156 129.585938 C 300.691406 129.445312 300.921875 129.429688 301.09375 129.550781 L 304.226562 131.769531 C 304.398438 131.890625 304.460938 132.113281 304.382812 132.308594 L 302.882812 135.898438 C 303.375 136.417969 303.835938 136.96875 304.253906 137.546875 L 308.066406 136.742188 C 308.269531 136.699219 308.480469 136.800781 308.570312 136.992188 L 310.171875 140.472656 C 310.257812 140.664062 310.203125 140.890625 310.035156 141.019531 L 306.945312 143.378906 C 307.105469 144.066406 307.226562 144.773438 307.300781 145.496094 L 311.003906 146.699219 C 311.207031 146.761719 311.332031 146.957031 311.3125 147.167969 L 310.957031 150.980469 C 310.9375 151.191406 310.777344 151.359375 310.566406 151.386719 L 306.703125 151.886719 C 306.5 152.578125 306.25 153.253906 305.960938 153.898438 L 308.5625 156.789062 C 308.703125 156.941406 308.71875 157.175781 308.59375 157.347656 L 306.375 160.472656 C 306.253906 160.644531 306.03125 160.710938 305.835938 160.628906 L 302.238281 159.132812 C 301.71875 159.625 301.164062 160.082031 300.585938 160.503906 L 301.394531 164.304688 C 301.4375 164.511719 301.335938 164.722656 301.140625 164.808594 L 297.65625 166.410156 C 297.464844 166.496094 297.238281 166.441406 297.109375 166.273438 L 294.746094 163.1875 C 294.058594 163.351562 293.34375 163.46875 292.625 163.542969 L 291.421875 167.242188 C 291.359375 167.425781 291.1875 167.550781 290.992188 167.550781 " fill-opacity="1" fill-rule="nonzero"/><path fill="#000000" d="M 245.738281 124.75 C 241.085938 131.097656 232.160156 132.480469 225.804688 127.839844 C 219.441406 123.199219 218.058594 114.289062 222.707031 107.941406 C 227.355469 101.59375 236.28125 100.207031 242.640625 104.851562 C 249 109.492188 250.386719 118.402344 245.738281 124.75 Z M 243.882812 102.539062 C 236.300781 97.003906 225.660156 98.652344 220.117188 106.222656 C 214.574219 113.792969 216.226562 124.414062 223.808594 129.949219 C 231.390625 135.480469 242.03125 133.832031 247.574219 126.261719 C 253.121094 118.695312 251.464844 108.070312 243.882812 102.539062 " fill-opacity="1" fill-rule="nonzero"/><path fill="#000000" d="M 207.019531 154.636719 C 205.96875 153.867188 205.738281 152.394531 206.507812 151.34375 L 224.339844 126.992188 L 228.148438 129.773438 L 210.316406 154.125 C 209.546875 155.175781 208.070312 155.402344 207.019531 154.636719 " fill-opacity="1" fill-rule="nonzero"/><path fill="#ffffff" d="M 242.035156 126.390625 C 241.902344 126.390625 241.773438 126.332031 241.683594 126.21875 C 241.527344 126.027344 241.558594 125.742188 241.753906 125.589844 C 244.597656 123.324219 246.226562 119.949219 246.226562 116.324219 C 246.226562 114.476562 245.808594 112.707031 244.996094 111.0625 C 244.882812 110.84375 244.976562 110.570312 245.199219 110.460938 C 245.421875 110.351562 245.691406 110.441406 245.804688 110.664062 C 246.679688 112.429688 247.125 114.335938 247.125 116.324219 C 247.125 120.222656 245.371094 123.855469 242.316406 126.289062 C 242.234375 126.359375 242.132812 126.390625 242.035156 126.390625 " fill-opacity="1" fill-rule="nonzero"/><path fill="#ffffff" d="M 242.804688 107.824219 C 242.695312 107.824219 242.585938 107.78125 242.496094 107.699219 C 241.460938 106.726562 240.277344 105.957031 238.976562 105.40625 C 238.746094 105.3125 238.640625 105.046875 238.738281 104.820312 C 238.835938 104.589844 239.097656 104.480469 239.328125 104.578125 C 240.730469 105.171875 242.003906 106 243.113281 107.046875 C 243.296875 107.21875 243.304688 107.5 243.132812 107.683594 C 243.042969 107.777344 242.925781 107.824219 242.804688 107.824219 " fill-opacity="1" fill-rule="nonzero"/><path fill="#ffffff" d="M 234.359375 129.070312 C 227.800781 129.070312 222.339844 124.167969 221.660156 117.664062 C 221.632812 117.414062 221.8125 117.195312 222.0625 117.167969 C 222.304688 117.144531 222.527344 117.320312 222.554688 117.570312 C 223.1875 123.613281 228.261719 128.167969 234.359375 128.167969 C 234.894531 128.167969 235.429688 128.132812 235.957031 128.0625 C 236.203125 128.03125 236.433594 128.203125 236.464844 128.449219 C 236.5 128.695312 236.324219 128.921875 236.078125 128.953125 C 235.511719 129.03125 234.933594 129.070312 234.359375 129.070312 " fill-opacity="1" fill-rule="nonzero"/></svg>