<svg width="481" height="197" viewBox="0 0 481 197" fill="none" xmlns="http://www.w3.org/2000/svg">
<path opacity="0.6" d="M174.497 178.043C195.975 184.452 228.752 181.416 247.273 171.228C265.676 161.099 262.61 147.964 240.845 141.923C219.427 135.97 187.701 139.085 169.576 148.857C151.342 158.688 153.356 171.734 174.497 178.043Z" fill="url(#paint0_radial_1239_3366)"/>
<path opacity="0.6" d="M17.3367 140.94C38.8146 147.349 71.592 144.313 90.1135 134.125C108.516 123.996 105.45 110.862 83.6849 104.82C62.2666 98.8677 30.5409 101.983 12.4162 111.754C-5.81769 121.586 -3.79394 134.631 17.3367 140.94Z" fill="url(#paint1_radial_1239_3366)"/>
<path opacity="0.6" d="M449.84 164.76C425.277 172.091 387.798 168.619 366.617 156.962C345.566 145.385 349.078 130.365 373.959 123.451C398.452 116.645 434.731 120.207 455.465 131.377C476.318 142.617 474.007 157.547 449.84 164.76Z" fill="url(#paint2_radial_1239_3366)"/>
<path d="M400.188 78.124L326.945 111.08L405.059 153.262L478.024 117.399L400.188 78.124Z" fill="url(#paint3_linear_1239_3366)"/>
<path opacity="0.44" d="M478.034 117.399L400.188 78.1239V0.754026C400.188 0.238161 400.783 -0.0991517 401.279 0.148861L478.034 38.8785V117.399Z" fill="url(#paint4_linear_1239_3366)"/>
<path d="M8.42773 126.139L90.2718 84.84V3.49197C90.2718 2.94634 89.6469 2.58922 89.1211 2.85708L8.42773 43.5807V126.139Z" fill="url(#paint5_linear_1239_3366)"/>
<path d="M163.734 168.519L245.578 127.22V45.8723C245.578 45.3267 244.953 44.9696 244.427 45.2374L163.734 85.961V168.519Z" fill="url(#paint6_linear_1239_3366)"/>
<path d="M478.034 117.399L477.072 39.9402C477.072 39.3549 477.409 38.8787 477.806 38.8787C478.213 38.8787 478.074 39.3846 478.094 39.9798L479.056 116.933L478.034 117.399Z" fill="url(#paint7_linear_1239_3366)"/>
<path opacity="0.3" d="M400.188 78.114V1.07148C400.188 0.48617 400.525 0.0100098 400.922 0.0100098C401.328 0.0100098 401.19 0.51594 401.209 1.11117V77.6378L400.188 78.114Z" fill="url(#paint8_linear_1239_3366)"/>
<path d="M326.945 111.08V114.393L405.158 157.25L478.054 120.971L478.034 117.399L405.059 153.262L326.945 111.08Z" fill="url(#paint9_linear_1239_3366)"/>
<path d="M401.279 0.148926H405.971L481 37.1424V115.683L479.045 116.923L477.795 38.8686L401.279 0.148926Z" fill="url(#paint10_linear_1239_3366)"/>
<path d="M452.736 121.457L452.528 122.201L450.177 123.233L450.385 122.488L452.736 121.457Z" fill="url(#paint11_linear_1239_3366)"/>
<g opacity="0.5">
<path opacity="0.3" d="M389.682 106.764L376.24 100.167C376.002 100.048 376.012 99.7307 376.25 99.6216L379.424 98.2327C379.514 98.193 379.623 98.193 379.722 98.2427L393.333 104.919C393.571 105.038 393.561 105.356 393.323 105.465L390.198 106.834C390.129 106.864 390.049 106.873 389.98 106.854L389.851 106.824C389.781 106.804 389.732 106.794 389.682 106.764Z" fill="#080123"/>
<path opacity="0.3" d="M383.086 96.6653L386.26 95.2764C386.349 95.2367 386.458 95.2368 386.558 95.2864L392.897 98.3915C393.135 98.5105 393.125 98.828 392.887 98.9371L389.712 100.326C389.623 100.366 389.514 100.366 389.415 100.316L383.076 97.2109C382.828 97.0919 382.838 96.7744 383.086 96.6653Z" fill="#080123"/>
<path opacity="0.3" d="M392.767 101.437L395.942 100.048C396.031 100.008 396.14 100.008 396.24 100.058L402.579 103.163C402.817 103.282 402.807 103.599 402.569 103.709L399.394 105.097C399.305 105.137 399.196 105.137 399.097 105.088L392.757 101.982C392.509 101.863 392.519 101.546 392.767 101.437Z" fill="#080123"/>
<path opacity="0.3" d="M402.46 106.169L405.634 104.78C405.724 104.74 405.833 104.74 405.932 104.79L412.271 107.895C412.509 108.014 412.499 108.332 412.261 108.441L409.087 109.83C408.997 109.869 408.888 109.869 408.789 109.82L402.45 106.715C402.202 106.596 402.212 106.278 402.46 106.169Z" fill="#080123"/>
<path opacity="0.3" d="M412.132 110.951L415.307 109.562C415.396 109.522 415.505 109.522 415.605 109.572L421.944 112.677C422.182 112.796 422.172 113.113 421.934 113.222L418.759 114.611C418.67 114.651 418.561 114.651 418.462 114.601L412.122 111.496C411.884 111.377 411.894 111.06 412.132 110.951Z" fill="#080123"/>
<path opacity="0.3" d="M408.72 115.524L411.895 114.135C411.984 114.095 412.093 114.095 412.192 114.145L418.531 117.25C418.77 117.369 418.76 117.687 418.521 117.796L415.347 119.185C415.258 119.224 415.149 119.224 415.049 119.175L408.71 116.07C408.472 115.951 408.482 115.623 408.72 115.524Z" fill="#080123"/>
<path opacity="0.3" d="M417.37 119.72L420.545 118.331C420.634 118.292 420.743 118.292 420.842 118.341L427.182 121.446C427.42 121.565 427.41 121.883 427.172 121.992L423.997 123.381C423.908 123.421 423.799 123.421 423.699 123.371L417.36 120.266C417.112 120.147 417.122 119.829 417.37 119.72Z" fill="#080123"/>
<path opacity="0.3" d="M405.188 114.363L393.194 108.48C392.956 108.361 392.966 108.044 393.204 107.935L396.379 106.546C396.468 106.506 396.577 106.506 396.676 106.556L408.829 112.518C409.067 112.637 409.057 112.955 408.819 113.064L405.694 114.433C405.625 114.463 405.545 114.472 405.476 114.453L405.347 114.423C405.287 114.403 405.238 114.383 405.188 114.363Z" fill="#080123"/>
<path opacity="0.3" d="M441.517 125.851C441.467 125.841 441.418 125.822 441.368 125.792L425.714 118.113L421.815 116.199C421.577 116.08 421.587 115.762 421.825 115.653L424.999 114.264C425.089 114.225 425.198 114.225 425.297 114.274L432.241 117.677L445.009 123.937C445.247 124.056 445.237 124.373 444.999 124.482L441.874 125.851C441.805 125.881 441.725 125.891 441.656 125.871L441.517 125.851Z" fill="#080123"/>
<path opacity="0.3" d="M373.184 98.6989L369.792 97.0421C369.553 96.9231 369.563 96.6056 369.801 96.4965L379.663 92.1712C379.752 92.1315 379.861 92.1315 379.95 92.1811L383.502 93.9172C383.74 94.0363 383.73 94.3537 383.492 94.4628L373.68 98.7683C373.611 98.7981 373.532 98.808 373.462 98.7881L373.333 98.7584C373.284 98.7386 373.224 98.7187 373.184 98.6989Z" fill="#080123"/>
<path opacity="0.3" d="M428.263 125.693C428.084 125.653 427.916 125.593 427.777 125.524C427.33 125.296 427.072 124.929 427.092 124.522C427.102 124.056 427.469 123.639 428.084 123.371C428.769 123.074 429.672 122.994 430.386 123.163C430.564 123.203 430.733 123.262 430.872 123.332C431.318 123.56 431.576 123.927 431.556 124.334C431.546 124.8 431.179 125.216 430.564 125.484C429.88 125.782 428.977 125.871 428.263 125.693Z" fill="#080123"/>
<path opacity="0.3" d="M432.043 127.548C431.864 127.508 431.695 127.449 431.556 127.379C431.11 127.151 430.852 126.784 430.872 126.377C430.882 125.911 431.249 125.494 431.864 125.226C432.549 124.929 433.451 124.849 434.166 125.018C434.344 125.058 434.513 125.117 434.652 125.187C435.098 125.415 435.356 125.782 435.336 126.189C435.326 126.655 434.959 127.072 434.344 127.34C433.66 127.647 432.757 127.726 432.043 127.548Z" fill="#080123"/>
<path opacity="0.3" d="M435.922 129.442C435.743 129.403 435.575 129.343 435.436 129.274C434.92 129.016 434.672 128.579 434.771 128.113C434.85 127.716 435.198 127.359 435.743 127.121C436.428 126.823 437.33 126.744 438.045 126.913C438.223 126.952 438.392 127.012 438.531 127.091C439.067 127.359 439.325 127.855 439.176 128.341C439.096 128.599 438.868 128.966 438.223 129.244C437.539 129.532 436.636 129.611 435.922 129.442Z" fill="#080123"/>
</g>
<path d="M389.722 99.0363L389.514 99.7804L383.978 97.0622L384.186 96.3181L389.722 99.0363Z" fill="url(#paint12_linear_1239_3366)"/>
<path d="M392.083 97.9946L391.875 98.7387L389.513 99.7704L389.722 99.0263L392.083 97.9946Z" fill="url(#paint13_linear_1239_3366)"/>
<path d="M399.404 103.808L399.196 104.552L393.66 101.834L393.868 101.09L399.404 103.808Z" fill="url(#paint14_linear_1239_3366)"/>
<path d="M401.756 102.766L401.547 103.51L399.196 104.542L399.404 103.798L401.756 102.766Z" fill="url(#paint15_linear_1239_3366)"/>
<path d="M409.097 108.54L408.889 109.284L403.353 106.566L403.562 105.822L409.097 108.54Z" fill="url(#paint16_linear_1239_3366)"/>
<path d="M411.458 107.499L411.25 108.243L408.889 109.274L409.097 108.53L411.458 107.499Z" fill="url(#paint17_linear_1239_3366)"/>
<path d="M418.779 113.322L418.571 114.066L413.035 111.348L413.243 110.604L418.779 113.322Z" fill="url(#paint18_linear_1239_3366)"/>
<path d="M421.131 112.29L420.923 113.034L418.562 114.066L418.77 113.322L421.131 112.29Z" fill="url(#paint19_linear_1239_3366)"/>
<path d="M415.366 117.895L415.157 118.639L409.622 115.921L409.83 115.177L415.366 117.895Z" fill="url(#paint20_linear_1239_3366)"/>
<path d="M417.718 116.854L417.509 117.598L415.148 118.629L415.357 117.885L417.718 116.854Z" fill="url(#paint21_linear_1239_3366)"/>
<path d="M424.007 122.091L423.799 122.836L418.263 120.117L418.471 119.373L424.007 122.091Z" fill="url(#paint22_linear_1239_3366)"/>
<path d="M426.368 121.05L426.16 121.794L423.799 122.826L424.007 122.082L426.368 121.05Z" fill="url(#paint23_linear_1239_3366)"/>
<path d="M390.159 105.564L389.951 106.308L377.144 100.028L377.352 99.2844L390.159 105.564Z" fill="url(#paint24_linear_1239_3366)"/>
<path d="M392.52 104.532L392.311 105.276L389.96 106.308L390.169 105.564L392.52 104.532Z" fill="url(#paint25_linear_1239_3366)"/>
<path d="M405.664 113.163L405.456 113.907L394.107 108.342L394.315 107.598L405.664 113.163Z" fill="url(#paint26_linear_1239_3366)"/>
<path d="M408.024 112.131L407.816 112.875L405.455 113.907L405.663 113.163L408.024 112.131Z" fill="url(#paint27_linear_1239_3366)"/>
<path d="M428.471 118.034L422.936 115.316L422.727 116.06L428.263 118.778L441.636 125.335L441.844 124.591L428.471 118.034Z" fill="url(#paint28_linear_1239_3366)"/>
<path d="M444.206 123.56L443.997 124.304L441.646 125.335L441.854 124.591L444.206 123.56Z" fill="url(#paint29_linear_1239_3366)"/>
<path d="M373.661 97.4988L373.453 98.2429L370.705 96.8937L370.913 96.1497L373.661 97.4988Z" fill="url(#paint30_linear_1239_3366)"/>
<path d="M382.698 93.5305L382.49 94.2746L373.452 98.2328L373.66 97.4888L382.698 93.5305Z" fill="url(#paint31_linear_1239_3366)"/>
<path d="M438.67 127.518L438.472 128.232C438.422 128.421 438.224 128.609 437.886 128.758C437.212 129.046 436.239 129.076 435.714 128.808C435.456 128.679 435.347 128.5 435.396 128.322L435.595 127.597C435.555 127.776 435.664 127.945 435.912 128.074C436.438 128.341 437.41 128.312 438.085 128.024C438.412 127.875 438.61 127.697 438.67 127.518Z" fill="url(#paint32_linear_1239_3366)"/>
<path d="M434.791 125.633L434.592 126.347C434.543 126.536 434.344 126.724 434.007 126.873C433.332 127.161 432.36 127.191 431.834 126.923C431.576 126.794 431.467 126.615 431.517 126.437L431.715 125.712C431.676 125.891 431.785 126.06 432.033 126.189C432.558 126.456 433.531 126.427 434.205 126.139C434.533 125.99 434.731 125.812 434.791 125.633Z" fill="url(#paint33_linear_1239_3366)"/>
<path d="M431.012 123.778L430.813 124.492C430.764 124.681 430.565 124.869 430.228 125.018C429.553 125.306 428.581 125.336 428.055 125.068C427.797 124.939 427.688 124.76 427.738 124.582L427.936 123.857C427.896 124.036 428.006 124.205 428.254 124.334C428.779 124.601 429.752 124.572 430.426 124.284C430.764 124.135 430.952 123.957 431.012 123.778Z" fill="url(#paint34_linear_1239_3366)"/>
<g opacity="0.5">
<path opacity="0.3" d="M404.394 100.673L390.952 94.0759C390.713 93.9569 390.723 93.6394 390.961 93.5303L394.136 92.1414C394.225 92.1017 394.334 92.1017 394.433 92.1513L408.044 98.8279C408.283 98.9469 408.273 99.2644 408.035 99.3735L404.91 100.743C404.84 100.772 404.761 100.782 404.691 100.762L404.562 100.733C404.493 100.713 404.443 100.703 404.394 100.673Z" fill="#080123"/>
<path opacity="0.3" d="M397.797 90.574L400.972 89.1851C401.061 89.1454 401.17 89.1454 401.269 89.195L407.608 92.3002C407.847 92.4192 407.837 92.7367 407.599 92.8458L404.424 94.2347C404.335 94.2744 404.226 94.2743 404.126 94.2247L397.787 91.1196C397.539 91.0006 397.549 90.6831 397.797 90.574Z" fill="#080123"/>
<path opacity="0.3" d="M407.469 95.3457L410.643 93.9568C410.733 93.9172 410.842 93.9172 410.941 93.9668L417.28 97.0719C417.518 97.1909 417.508 97.5084 417.27 97.6175L414.096 99.0064C414.006 99.0461 413.897 99.0461 413.798 98.9965L407.459 95.8914C407.221 95.7723 407.231 95.4449 407.469 95.3457Z" fill="#080123"/>
<path opacity="0.3" d="M417.171 100.078L420.346 98.689C420.435 98.6493 420.544 98.6493 420.643 98.699L426.983 101.804C427.221 101.923 427.211 102.241 426.973 102.35L423.798 103.739C423.709 103.778 423.6 103.778 423.501 103.729L417.161 100.624C416.913 100.504 416.923 100.187 417.171 100.078Z" fill="#080123"/>
<path opacity="0.3" d="M426.844 104.86L430.019 103.471C430.108 103.431 430.217 103.431 430.316 103.481L436.655 106.586C436.893 106.705 436.883 107.022 436.645 107.131L433.471 108.52C433.382 108.56 433.272 108.56 433.173 108.51L426.834 105.405C426.596 105.286 426.606 104.969 426.844 104.86Z" fill="#080123"/>
<path opacity="0.3" d="M423.432 109.433L426.606 108.044C426.695 108.005 426.805 108.005 426.904 108.054L433.243 111.159C433.481 111.278 433.471 111.596 433.233 111.705L430.058 113.094C429.969 113.133 429.86 113.133 429.761 113.084L423.422 109.979C423.184 109.85 423.194 109.532 423.432 109.433Z" fill="#080123"/>
<path opacity="0.3" d="M432.082 113.629L435.256 112.241C435.346 112.201 435.455 112.201 435.554 112.25L441.893 115.356C442.131 115.475 442.121 115.792 441.883 115.901L438.709 117.29C438.619 117.33 438.51 117.33 438.411 117.28L432.072 114.175C431.824 114.056 431.834 113.739 432.082 113.629Z" fill="#080123"/>
<path opacity="0.3" d="M419.9 108.272L407.906 102.389C407.668 102.27 407.678 101.953 407.916 101.844L411.09 100.455C411.179 100.415 411.289 100.415 411.388 100.465L423.54 106.427C423.778 106.546 423.769 106.864 423.53 106.973L420.405 108.342C420.336 108.371 420.257 108.381 420.187 108.362L420.058 108.332C419.999 108.312 419.949 108.292 419.9 108.272Z" fill="#080123"/>
<path opacity="0.3" d="M456.228 119.76C456.179 119.75 456.129 119.731 456.08 119.701L440.425 112.022L436.526 110.108C436.288 109.989 436.298 109.671 436.536 109.562L439.711 108.173C439.8 108.133 439.909 108.133 440.009 108.183L446.953 111.586L459.721 117.846C459.959 117.965 459.949 118.282 459.711 118.391L456.586 119.76C456.516 119.79 456.437 119.8 456.367 119.78L456.228 119.76Z" fill="#080123"/>
<path opacity="0.3" d="M387.896 92.6078L384.503 90.9511C384.265 90.8321 384.275 90.5146 384.513 90.4055L394.374 86.0801C394.463 86.0405 394.572 86.0405 394.662 86.0901L398.213 87.8262C398.451 87.9452 398.441 88.2626 398.203 88.3718L388.392 92.6773C388.322 92.707 388.243 92.7169 388.174 92.6971L388.045 92.6674C387.995 92.6475 387.936 92.6277 387.896 92.6078Z" fill="#080123"/>
<path opacity="0.3" d="M442.974 119.602C442.796 119.562 442.627 119.502 442.488 119.433C442.042 119.205 441.784 118.838 441.804 118.431C441.814 117.965 442.181 117.548 442.796 117.28C443.48 116.983 444.383 116.903 445.097 117.072C445.276 117.112 445.445 117.171 445.583 117.241C446.03 117.469 446.288 117.836 446.268 118.242C446.258 118.709 445.891 119.125 445.276 119.393C444.591 119.691 443.689 119.77 442.974 119.602Z" fill="#080123"/>
<path opacity="0.3" d="M446.754 121.457C446.576 121.417 446.407 121.358 446.268 121.288C445.822 121.06 445.564 120.693 445.584 120.286C445.593 119.82 445.961 119.403 446.576 119.135C447.26 118.838 448.163 118.758 448.877 118.927C449.056 118.967 449.224 119.026 449.363 119.096C449.81 119.324 450.068 119.691 450.048 120.098C450.028 120.564 449.671 120.981 449.056 121.248C448.371 121.556 447.468 121.635 446.754 121.457Z" fill="#080123"/>
<path opacity="0.3" d="M450.633 123.351C450.455 123.312 450.286 123.252 450.147 123.183C449.631 122.925 449.383 122.488 449.482 122.022C449.562 121.625 449.909 121.268 450.455 121.03C451.139 120.732 452.042 120.653 452.756 120.822C452.935 120.861 453.103 120.921 453.242 121C453.778 121.268 454.036 121.764 453.887 122.25C453.808 122.508 453.58 122.875 452.935 123.153C452.25 123.441 451.347 123.52 450.633 123.351Z" fill="#080123"/>
</g>
<path d="M404.434 92.945L404.226 93.689L398.69 90.9708L398.899 90.2268L404.434 92.945Z" fill="url(#paint35_linear_1239_3366)"/>
<path d="M406.795 91.9036L406.587 92.6476L404.226 93.6794L404.434 92.9353L406.795 91.9036Z" fill="url(#paint36_linear_1239_3366)"/>
<path d="M414.116 97.7072L413.908 98.4513L408.372 95.7331L408.58 94.989L414.116 97.7072Z" fill="url(#paint37_linear_1239_3366)"/>
<path d="M416.468 96.675L416.26 97.4191L413.908 98.4509L414.117 97.7068L416.468 96.675Z" fill="url(#paint38_linear_1239_3366)"/>
<path d="M423.809 102.449L423.601 103.193L418.065 100.475L418.274 99.7307L423.809 102.449Z" fill="url(#paint39_linear_1239_3366)"/>
<path d="M426.169 101.407L425.961 102.151L423.6 103.183L423.808 102.439L426.169 101.407Z" fill="url(#paint40_linear_1239_3366)"/>
<path d="M433.491 107.231L433.283 107.975L427.747 105.256L427.956 104.512L433.491 107.231Z" fill="url(#paint41_linear_1239_3366)"/>
<path d="M435.842 106.189L435.634 106.933L433.273 107.965L433.481 107.221L435.842 106.189Z" fill="url(#paint42_linear_1239_3366)"/>
<path d="M430.078 111.794L429.87 112.538L424.334 109.82L424.542 109.076L430.078 111.794Z" fill="url(#paint43_linear_1239_3366)"/>
<path d="M432.43 110.762L432.222 111.506L429.861 112.538L430.069 111.794L432.43 110.762Z" fill="url(#paint44_linear_1239_3366)"/>
<path d="M438.719 116L438.511 116.745L432.975 114.026L433.183 113.282L438.719 116Z" fill="url(#paint45_linear_1239_3366)"/>
<path d="M441.08 114.959L440.872 115.703L438.51 116.735L438.719 115.991L441.08 114.959Z" fill="url(#paint46_linear_1239_3366)"/>
<path d="M404.87 99.473L404.662 100.217L391.854 93.9374L392.063 93.1934L404.87 99.473Z" fill="url(#paint47_linear_1239_3366)"/>
<path d="M407.232 98.4412L407.024 99.1852L404.672 100.217L404.881 99.4729L407.232 98.4412Z" fill="url(#paint48_linear_1239_3366)"/>
<path d="M420.376 107.072L420.168 107.816L408.819 102.251L409.027 101.507L420.376 107.072Z" fill="url(#paint49_linear_1239_3366)"/>
<path d="M422.737 106.031L422.528 106.775L420.167 107.806L420.376 107.062L422.737 106.031Z" fill="url(#paint50_linear_1239_3366)"/>
<path d="M443.184 111.943L437.648 109.225L437.44 109.969L442.975 112.687L456.348 119.244L456.557 118.5L443.184 111.943Z" fill="url(#paint51_linear_1239_3366)"/>
<path d="M388.374 91.4073L388.165 92.1513L385.417 90.8021L385.626 90.0581L388.374 91.4073Z" fill="url(#paint52_linear_1239_3366)"/>
<path d="M397.41 87.4395L397.202 88.1835L388.164 92.1418L388.372 91.3977L397.41 87.4395Z" fill="url(#paint53_linear_1239_3366)"/>
<path d="M392.52 104.532L390.169 105.564L377.361 99.2844L379.722 98.2527L392.52 104.532Z" fill="url(#paint54_linear_1239_3366)"/>
<path d="M392.083 97.9946L389.722 99.0263L384.186 96.3081L386.537 95.2764L392.083 97.9946Z" fill="url(#paint55_linear_1239_3366)"/>
<path d="M401.756 102.766L399.404 103.798L393.869 101.08L396.23 100.048L401.756 102.766Z" fill="url(#paint56_linear_1239_3366)"/>
<path d="M411.458 107.498L409.097 108.53L403.561 105.812L405.912 104.78L411.458 107.498Z" fill="url(#paint57_linear_1239_3366)"/>
<path d="M421.131 112.29L418.77 113.322L413.234 110.604L415.585 109.572L421.131 112.29Z" fill="url(#paint58_linear_1239_3366)"/>
<path d="M417.718 116.853L415.357 117.885L409.821 115.167L412.182 114.135L417.718 116.853Z" fill="url(#paint59_linear_1239_3366)"/>
<path d="M426.369 121.05L424.008 122.082L418.473 119.363L420.834 118.332L426.369 121.05Z" fill="url(#paint60_linear_1239_3366)"/>
<path d="M408.026 112.131L405.665 113.163L394.316 107.597L396.667 106.566L408.026 112.131Z" fill="url(#paint61_linear_1239_3366)"/>
<path d="M430.833 117.002L425.297 114.284L422.936 115.316L427.45 117.528L441.855 124.591L444.206 123.56L430.833 117.002Z" fill="url(#paint62_linear_1239_3366)"/>
<path d="M382.699 93.5303L373.661 97.4886L370.913 96.1394L379.951 92.1812L382.699 93.5303Z" fill="url(#paint63_linear_1239_3366)"/>
<path d="M430.435 124.274C429.761 124.571 428.789 124.591 428.263 124.323C427.737 124.056 427.856 123.609 428.531 123.312C429.205 123.014 430.177 122.994 430.703 123.262C431.229 123.53 431.11 123.976 430.435 124.274Z" fill="url(#paint64_linear_1239_3366)"/>
<path d="M434.206 126.129C433.531 126.427 432.559 126.447 432.033 126.179C431.507 125.911 431.626 125.464 432.301 125.167C432.975 124.869 433.948 124.849 434.473 125.117C434.999 125.385 434.88 125.831 434.206 126.129Z" fill="url(#paint65_linear_1239_3366)"/>
<path d="M438.67 127.518C438.62 127.697 438.422 127.875 438.094 128.014C437.42 128.302 436.448 128.332 435.922 128.064C435.664 127.935 435.565 127.766 435.604 127.588C435.644 127.399 435.843 127.201 436.19 127.052C436.864 126.754 437.837 126.734 438.362 127.002C438.62 127.141 438.729 127.33 438.67 127.518Z" fill="url(#paint66_linear_1239_3366)"/>
<path d="M407.232 98.4408L404.881 99.4725L392.074 93.1928L394.435 92.1611L407.232 98.4408Z" fill="url(#paint67_linear_1239_3366)"/>
<path d="M406.795 91.9033L404.434 92.935L398.898 90.2168L401.25 89.1851L406.795 91.9033Z" fill="url(#paint68_linear_1239_3366)"/>
<path d="M416.468 96.6752L414.117 97.707L408.581 94.9888L410.942 93.957L416.468 96.6752Z" fill="url(#paint69_linear_1239_3366)"/>
<path d="M426.17 101.407L423.809 102.439L418.273 99.7207L420.625 98.689L426.17 101.407Z" fill="url(#paint70_linear_1239_3366)"/>
<path d="M435.843 106.189L433.482 107.221L427.946 104.502L430.298 103.471L435.843 106.189Z" fill="url(#paint71_linear_1239_3366)"/>
<path d="M432.43 110.762L430.069 111.794L424.533 109.076L426.894 108.044L432.43 110.762Z" fill="url(#paint72_linear_1239_3366)"/>
<path d="M441.081 114.959L438.719 115.991L433.184 113.272L435.545 112.241L441.081 114.959Z" fill="url(#paint73_linear_1239_3366)"/>
<path d="M422.738 106.03L420.377 107.062L409.028 101.497L411.379 100.465L422.738 106.03Z" fill="url(#paint74_linear_1239_3366)"/>
<path d="M445.545 110.901L440.01 108.183L437.648 109.215L442.162 111.427L456.567 118.49L458.918 117.458L445.545 110.901Z" fill="url(#paint75_linear_1239_3366)"/>
<path d="M397.411 87.439L388.373 91.3973L385.625 90.0481L394.663 86.0898L397.411 87.439Z" fill="url(#paint76_linear_1239_3366)"/>
<path d="M445.148 118.183C444.473 118.48 443.501 118.5 442.975 118.232C442.449 117.965 442.568 117.518 443.243 117.221C443.917 116.923 444.89 116.903 445.415 117.171C445.941 117.439 445.822 117.885 445.148 118.183Z" fill="url(#paint77_linear_1239_3366)"/>
<path d="M448.918 120.038C448.243 120.336 447.271 120.356 446.745 120.088C446.219 119.82 446.338 119.373 447.013 119.076C447.688 118.778 448.66 118.758 449.186 119.026C449.711 119.294 449.592 119.74 448.918 120.038Z" fill="url(#paint78_linear_1239_3366)"/>
<path d="M453.382 121.427C453.332 121.605 453.134 121.784 452.807 121.923C452.132 122.21 451.16 122.24 450.634 121.972C450.376 121.843 450.277 121.675 450.317 121.496C450.356 121.308 450.555 121.109 450.902 120.96C451.577 120.663 452.549 120.643 453.075 120.911C453.333 121.05 453.442 121.238 453.382 121.427Z" fill="url(#paint79_linear_1239_3366)"/>
<path d="M453.382 121.427L453.184 122.141C453.134 122.33 452.936 122.518 452.598 122.667C451.924 122.955 450.952 122.985 450.426 122.717C450.168 122.588 450.059 122.409 450.108 122.231L450.307 121.506C450.267 121.685 450.376 121.854 450.624 121.983C451.15 122.25 452.122 122.221 452.797 121.933C453.124 121.784 453.323 121.606 453.382 121.427Z" fill="url(#paint80_linear_1239_3366)"/>
<path d="M449.503 119.542L449.304 120.256C449.255 120.445 449.056 120.633 448.719 120.782C448.044 121.07 447.072 121.099 446.546 120.832C446.288 120.703 446.179 120.524 446.229 120.346L446.427 119.621C446.388 119.8 446.497 119.969 446.745 120.098C447.271 120.365 448.243 120.336 448.917 120.048C449.245 119.899 449.443 119.711 449.503 119.542Z" fill="url(#paint81_linear_1239_3366)"/>
<path d="M445.723 117.687L445.524 118.401C445.475 118.59 445.277 118.778 444.939 118.927C444.265 119.215 443.292 119.245 442.767 118.977C442.509 118.848 442.4 118.669 442.449 118.491L442.648 117.766C442.608 117.945 442.717 118.114 442.965 118.243C443.491 118.51 444.463 118.481 445.138 118.193C445.475 118.044 445.663 117.866 445.723 117.687Z" fill="url(#paint82_linear_1239_3366)"/>
<path opacity="0.24" d="M359.782 118.629L378.264 110.524L408.889 126.139L390.853 134.849L359.782 118.629Z" fill="black"/>
<path d="M420.385 50.1285L431.992 61.4577L431.198 62.6481L418.53 50.2773V48.2634L431.188 47.4797L432.012 49.4142L420.385 50.1285Z" fill="#FC4C8B"/>
<path d="M459.898 67.7375V69.662L447.141 70.1283L446.347 68.2038L457.954 67.7771L446.337 56.1404L447.151 54.9797L459.898 67.7375Z" fill="#FC4C8B"/>
<path d="M436.288 68.7986L434.443 67.9157L442.042 48.8386L443.897 49.6918L436.288 68.7986Z" fill="#FC4C8B"/>
<path d="M89.6569 2.79759L85.3018 0L3.93408 40.8129V123.361L8.42797 126.139V43.5906L89.6569 2.79759Z" fill="url(#paint83_linear_1239_3366)"/>
<path d="M244.971 45.2573L240.616 42.4597L159.258 83.2726V165.821L163.743 168.599V86.0504L244.971 45.2573Z" fill="url(#paint84_linear_1239_3366)"/>
<path opacity="0.35" d="M224.903 104.562C225.2 103.253 226.222 101.913 227.412 101.308L230.637 99.6912V95.0881L227.412 96.7051C226.242 97.3004 225.2 97.0523 224.913 96.0504C224.863 95.8817 224.813 95.7329 224.754 95.5742C224.436 94.6119 224.942 93.1536 225.954 92.0723L228.742 89.0465L226.43 86.2291L223.672 89.235C222.651 90.356 221.341 90.862 220.508 90.4354C220.349 90.356 220.19 90.2866 220.032 90.2072C219.169 89.8203 219 88.6001 219.565 87.2708L221.123 83.6994L217.095 83.501L215.528 87.112C214.942 88.4513 213.722 89.5624 212.561 89.8402C212.552 89.8501 212.542 89.8501 212.522 89.8501C211.361 90.1377 210.528 89.5326 210.528 88.3422V85.118L205.925 87.4295V90.6536C205.925 91.8242 205.151 93.2628 204.02 94.1159C203.831 94.2548 203.653 94.3937 203.464 94.5425C202.343 95.4254 201.143 95.5345 200.558 94.8202L198.931 92.856L194.953 97.1714L196.56 99.1257C197.165 99.84 197.006 101.239 196.173 102.489C196.014 102.717 195.865 102.955 195.707 103.193C194.893 104.473 193.584 105.296 192.542 105.247L189.754 105.098L187.522 110.237L190.34 110.395C191.381 110.455 191.877 111.417 191.57 112.727C191.57 112.737 191.57 112.747 191.56 112.776C191.262 114.086 190.24 115.415 189.05 116.02L185.826 117.647V122.25L189.05 120.623C190.221 120.028 191.262 120.286 191.55 121.288C191.6 121.457 191.649 121.606 191.689 121.774C192.006 122.737 191.51 124.175 190.508 125.276L187.721 128.302L190.032 131.109L192.79 128.103C193.812 127.002 195.121 126.477 195.955 126.913C196.113 126.992 196.262 127.062 196.431 127.141C197.294 127.508 197.462 128.748 196.897 130.078L195.34 133.649L199.357 133.857L200.935 130.246C201.52 128.907 202.74 127.796 203.891 127.528C203.901 127.518 203.911 127.518 203.941 127.518C205.101 127.23 205.925 127.836 205.925 129.036V132.26L210.528 129.949V126.725C210.528 125.554 211.312 124.115 212.452 123.252C212.641 123.113 212.819 122.975 213.008 122.826C214.129 121.923 215.319 121.844 215.915 122.548L217.542 124.512L221.51 120.207L219.903 118.252C219.307 117.528 219.456 116.139 220.309 114.889C220.468 114.661 220.617 114.423 220.776 114.185C221.579 112.915 222.899 112.082 223.94 112.131L226.728 112.28L228.96 107.132L226.143 106.983C225.101 106.923 224.605 105.961 224.913 104.642C224.893 104.592 224.893 104.582 224.903 104.562ZM208.236 116.09C204.139 118.153 200.816 116.506 200.816 112.389C200.816 108.292 204.139 103.302 208.236 101.239C212.353 99.1654 215.667 100.822 215.667 104.919C215.667 109.036 212.353 114.016 208.236 116.09Z" fill="black"/>
<path opacity="0.35" d="M69.7461 40.0093C65.0834 37.6681 57.524 41.4379 52.8713 48.4219L51.0856 51.0905L49.3 50.1977C44.6373 47.8564 37.0779 51.6262 32.4252 58.6102C27.7626 65.5943 27.7626 73.1537 32.4252 75.485L51.0856 84.8499L67.9603 59.5626L69.7461 56.894C74.4087 49.9001 74.4087 42.3505 69.7461 40.0093Z" fill="black"/>
<g opacity="0.71">
<path opacity="0.71" d="M190.488 169.234C190.26 168.797 190.439 168.261 190.875 168.033L195.627 165.603C196.064 165.375 196.6 165.553 196.828 165.99C197.056 166.426 196.877 166.962 196.441 167.19L191.689 169.621C191.242 169.839 190.707 169.67 190.488 169.234Z" fill="url(#paint85_radial_1239_3366)"/>
<path opacity="0.71" d="M150.241 189.809C150.013 189.372 150.191 188.836 150.628 188.608L163.247 182.15C163.683 181.922 164.219 182.1 164.447 182.537C164.675 182.973 164.497 183.509 164.06 183.737L151.441 190.196C150.995 190.424 150.459 190.245 150.241 189.809ZM170.36 179.521C170.131 179.085 170.31 178.549 170.746 178.321L183.365 171.863C183.802 171.634 184.338 171.813 184.566 172.249C184.794 172.686 184.615 173.222 184.179 173.45L171.56 179.908C171.124 180.136 170.588 179.958 170.36 179.521Z" fill="url(#paint86_radial_1239_3366)"/>
<path opacity="0.71" d="M137.453 196.803L132.036 194.055C131.6 193.836 131.421 193.301 131.649 192.864C131.868 192.428 132.403 192.249 132.84 192.477L137.453 194.809C137.79 194.977 138.187 194.977 138.524 194.809L143.127 192.457C143.564 192.229 144.099 192.408 144.328 192.844C144.556 193.281 144.377 193.817 143.941 194.045L138.534 196.813C138.187 196.971 137.79 196.971 137.453 196.803Z" fill="url(#paint87_radial_1239_3366)"/>
<path opacity="0.71" d="M125.103 190.543L113.853 184.848C113.417 184.63 113.238 184.094 113.466 183.658C113.685 183.221 114.22 183.043 114.657 183.271L125.907 188.965C126.343 189.184 126.522 189.719 126.294 190.156C126.075 190.592 125.539 190.761 125.103 190.543ZM106.919 181.337L95.669 175.642C95.2325 175.424 95.0539 174.888 95.2821 174.452C95.5003 174.015 96.036 173.837 96.4725 174.065L107.722 179.759C108.159 179.977 108.337 180.513 108.109 180.95C107.891 181.376 107.355 181.555 106.919 181.337Z" fill="url(#paint88_radial_1239_3366)"/>
<path opacity="0.71" d="M88.7341 172.121L83.7143 169.581C82.8413 169.134 82.8512 167.875 83.7341 167.458L88.8035 165.037C89.2499 164.829 89.7758 165.017 89.9841 165.454C90.1924 165.9 90.0039 166.426 89.5674 166.635L87.752 167.498C86.869 167.924 86.8492 169.184 87.7321 169.621L89.5277 170.523C89.9642 170.742 90.1427 171.277 89.9146 171.714C89.7062 172.17 89.1706 172.349 88.7341 172.121Z" fill="url(#paint89_radial_1239_3366)"/>
<path opacity="0.71" d="M96.1249 162.517C95.9165 162.071 96.1051 161.545 96.5416 161.327L109.656 155.057C110.103 154.849 110.629 155.037 110.837 155.474C111.045 155.92 110.857 156.446 110.42 156.654L97.3055 162.924C96.869 163.152 96.3431 162.964 96.1249 162.517Z" fill="url(#paint90_radial_1239_3366)"/>
<path opacity="0.71" d="M116.977 152.557C116.769 152.111 116.957 151.585 117.394 151.367L118.733 150.732C119.666 150.285 119.626 148.946 118.664 148.559L117.285 148.014C116.828 147.835 116.61 147.319 116.789 146.863C116.967 146.407 117.483 146.188 117.939 146.367L123.088 148.42C124.051 148.807 124.09 150.147 123.158 150.593L118.158 152.984C117.721 153.192 117.195 153.004 116.977 152.557Z" fill="url(#paint91_radial_1239_3366)"/>
<path opacity="0.71" d="M110.033 145.127L98.2477 140.435C97.7913 140.256 97.5731 139.74 97.7516 139.284C97.9302 138.828 98.4461 138.609 98.9024 138.788L110.688 143.48C111.144 143.659 111.363 144.175 111.184 144.631C111.005 145.087 110.49 145.306 110.033 145.127ZM91.0056 137.538L79.2201 132.845C78.7638 132.667 78.5455 132.151 78.7241 131.695C78.9026 131.238 79.4185 131.02 79.8749 131.199L91.6604 135.891C92.1168 136.07 92.335 136.585 92.1565 137.042C91.9779 137.498 91.462 137.716 91.0056 137.538Z" fill="url(#paint92_radial_1239_3366)"/>
<path opacity="0.71" d="M71.9683 129.949L67.0081 127.974C66.5517 127.796 66.3335 127.28 66.512 126.824C66.6906 126.367 67.2065 126.149 67.6628 126.328L72.6132 128.302C73.0695 128.48 73.2878 128.996 73.1092 129.453C72.9405 129.909 72.4247 130.137 71.9683 129.949Z" fill="url(#paint93_radial_1239_3366)"/>
</g>
<g opacity="0.71">
<path opacity="0.71" d="M376.568 154.631C376.339 154.194 376.518 153.658 376.954 153.43L381.706 151C382.143 150.772 382.679 150.95 382.907 151.387C383.135 151.823 382.956 152.359 382.52 152.587L377.768 155.017C377.322 155.236 376.786 155.067 376.568 154.631Z" fill="url(#paint94_radial_1239_3366)"/>
<path opacity="0.71" d="M308.264 189.66C308.036 189.223 308.215 188.687 308.651 188.459L319.127 183.092C319.564 182.864 320.099 183.043 320.328 183.479C320.556 183.916 320.377 184.451 319.941 184.679L309.465 190.046C309.018 190.275 308.482 190.106 308.264 189.66ZM325.337 180.91C325.109 180.473 325.288 179.937 325.724 179.709L336.2 174.342C336.637 174.114 337.173 174.293 337.401 174.729C337.629 175.166 337.45 175.701 337.014 175.93L326.538 181.297C326.101 181.515 325.566 181.346 325.337 180.91ZM342.411 172.15C342.182 171.713 342.361 171.178 342.798 170.949L353.273 165.583C353.71 165.354 354.246 165.533 354.474 165.969C354.702 166.406 354.524 166.942 354.087 167.17L343.611 172.537C343.174 172.755 342.639 172.586 342.411 172.15ZM359.494 163.39C359.265 162.954 359.444 162.418 359.881 162.19L370.357 156.823C370.793 156.595 371.329 156.773 371.557 157.21C371.785 157.646 371.607 158.182 371.17 158.41L360.694 163.777C360.248 163.995 359.712 163.827 359.494 163.39Z" fill="url(#paint95_radial_1239_3366)"/>
<path opacity="0.71" d="M296.459 196.267L290.805 194.015C290.348 193.836 290.13 193.321 290.309 192.864C290.487 192.408 291.003 192.19 291.459 192.368L296.36 194.323C296.677 194.451 297.035 194.432 297.342 194.273L302.045 191.862C302.481 191.634 303.017 191.813 303.245 192.249C303.473 192.686 303.294 193.221 302.858 193.45L297.441 196.227C297.134 196.376 296.777 196.386 296.459 196.267Z" fill="url(#paint96_radial_1239_3366)"/>
<path opacity="0.71" d="M283.483 191.088L271.529 186.327C271.073 186.148 270.855 185.632 271.033 185.176C271.212 184.719 271.728 184.501 272.184 184.68L284.138 189.442C284.594 189.62 284.813 190.136 284.634 190.592C284.456 191.049 283.94 191.277 283.483 191.088ZM264.198 183.41L252.244 178.648C251.787 178.47 251.569 177.954 251.748 177.497C251.926 177.041 252.442 176.823 252.898 177.001L264.853 181.763C265.309 181.942 265.527 182.458 265.349 182.914C265.17 183.37 264.654 183.588 264.198 183.41ZM244.922 175.722L232.968 170.96C232.512 170.781 232.294 170.265 232.472 169.809C232.651 169.353 233.167 169.134 233.623 169.313L245.577 174.075C246.034 174.253 246.252 174.769 246.073 175.226C245.895 175.682 245.379 175.91 244.922 175.722Z" fill="url(#paint97_radial_1239_3366)"/>
<path opacity="0.71" d="M225.647 168.043L220.687 166.069C220.23 165.89 220.012 165.374 220.191 164.918C220.369 164.462 220.885 164.244 221.341 164.422L226.302 166.396C226.758 166.575 226.976 167.091 226.798 167.547C226.619 168.003 226.103 168.222 225.647 168.043Z" fill="url(#paint98_radial_1239_3366)"/>
</g>
<defs>
<radialGradient id="paint0_radial_1239_3366" cx="0" cy="0" r="1" gradientUnits="userSpaceOnUse" gradientTransform="translate(208.6 160.387) rotate(175.923) scale(50.2904 19.3095)">
<stop stop-color="#AA31A9"/>
<stop offset="0.1337" stop-color="#A530A5" stop-opacity="0.8663"/>
<stop offset="0.291" stop-color="#972C99" stop-opacity="0.709"/>
<stop offset="0.4604" stop-color="#7F2585" stop-opacity="0.5396"/>
<stop offset="0.6382" stop-color="#5E1C69" stop-opacity="0.3618"/>
<stop offset="0.8206" stop-color="#341045" stop-opacity="0.1794"/>
<stop offset="1" stop-color="#03031C" stop-opacity="0"/>
</radialGradient>
<radialGradient id="paint1_radial_1239_3366" cx="0" cy="0" r="1" gradientUnits="userSpaceOnUse" gradientTransform="translate(51.4395 123.282) rotate(175.923) scale(50.2904 19.3095)">
<stop stop-color="#AA31A9"/>
<stop offset="0.1337" stop-color="#A530A5" stop-opacity="0.8663"/>
<stop offset="0.291" stop-color="#972C99" stop-opacity="0.709"/>
<stop offset="0.4604" stop-color="#7F2585" stop-opacity="0.5396"/>
<stop offset="0.6382" stop-color="#5E1C69" stop-opacity="0.3618"/>
<stop offset="0.8206" stop-color="#341045" stop-opacity="0.1794"/>
<stop offset="1" stop-color="#03031C" stop-opacity="0"/>
</radialGradient>
<radialGradient id="paint2_radial_1239_3366" cx="0" cy="0" r="1" gradientUnits="userSpaceOnUse" gradientTransform="translate(411.293 144.267) rotate(4.07705) scale(57.5096 22.0814)">
<stop stop-color="#AA31A9"/>
<stop offset="0.1337" stop-color="#A530A5" stop-opacity="0.8663"/>
<stop offset="0.291" stop-color="#972C99" stop-opacity="0.709"/>
<stop offset="0.4604" stop-color="#7F2585" stop-opacity="0.5396"/>
<stop offset="0.6382" stop-color="#5E1C69" stop-opacity="0.3618"/>
<stop offset="0.8206" stop-color="#341045" stop-opacity="0.1794"/>
<stop offset="1" stop-color="#03031C" stop-opacity="0"/>
</radialGradient>
<linearGradient id="paint3_linear_1239_3366" x1="358.483" y1="166.095" x2="423.518" y2="89.4602" gradientUnits="userSpaceOnUse">
<stop offset="0.1438" stop-color="#6B2F91"/>
<stop offset="0.236" stop-color="#5B2480"/>
<stop offset="0.407" stop-color="#421465"/>
<stop offset="0.5595" stop-color="#330A55"/>
<stop offset="0.677" stop-color="#2E074F"/>
</linearGradient>
<linearGradient id="paint4_linear_1239_3366" x1="393.956" y1="-0.179605" x2="523.276" y2="167.879" gradientUnits="userSpaceOnUse">
<stop offset="0.2741" stop-color="#AD3784"/>
<stop offset="0.42" stop-color="#952E79" stop-opacity="0.7785"/>
<stop offset="0.7271" stop-color="#56175D" stop-opacity="0.3122"/>
<stop offset="0.9328" stop-color="#290749" stop-opacity="0"/>
</linearGradient>
<linearGradient id="paint5_linear_1239_3366" x1="20.1036" y1="131.768" x2="87.7879" y2="-24.5649" gradientUnits="userSpaceOnUse">
<stop offset="0.0156" stop-color="#253E81"/>
<stop offset="0.4345" stop-color="#6B2F91"/>
<stop offset="0.5107" stop-color="#713090"/>
<stop offset="0.6145" stop-color="#83328C"/>
<stop offset="0.7342" stop-color="#9F3587"/>
<stop offset="0.8648" stop-color="#C73A7F"/>
<stop offset="0.9799" stop-color="#F03F77"/>
</linearGradient>
<linearGradient id="paint6_linear_1239_3366" x1="166.417" y1="178.595" x2="248.477" y2="24.0597" gradientUnits="userSpaceOnUse">
<stop offset="0.0156" stop-color="#253E81"/>
<stop offset="0.4345" stop-color="#6B2F91"/>
<stop offset="0.5107" stop-color="#713090"/>
<stop offset="0.6145" stop-color="#83328C"/>
<stop offset="0.7342" stop-color="#9F3587"/>
<stop offset="0.8648" stop-color="#C73A7F"/>
<stop offset="0.9799" stop-color="#F03F77"/>
</linearGradient>
<linearGradient id="paint7_linear_1239_3366" x1="470.354" y1="139.749" x2="480.195" y2="61.3534" gradientUnits="userSpaceOnUse">
<stop offset="0.0156" stop-color="#5A247E"/>
<stop offset="1" stop-color="#6B2F91"/>
</linearGradient>
<linearGradient id="paint8_linear_1239_3366" x1="393.025" y1="100.426" x2="402.827" y2="22.3374" gradientUnits="userSpaceOnUse">
<stop offset="0.0156" stop-color="#5A247E"/>
<stop offset="1" stop-color="#6B2F91"/>
</linearGradient>
<linearGradient id="paint9_linear_1239_3366" x1="409.408" y1="120.797" x2="497.425" y2="183.178" gradientUnits="userSpaceOnUse">
<stop offset="0.0156" stop-color="#253E81"/>
<stop offset="0.4345" stop-color="#6B2F91"/>
<stop offset="0.5107" stop-color="#713090"/>
<stop offset="0.6145" stop-color="#83328C"/>
<stop offset="0.7342" stop-color="#9F3587"/>
<stop offset="0.8648" stop-color="#C73A7F"/>
<stop offset="0.9799" stop-color="#F03F77"/>
</linearGradient>
<linearGradient id="paint10_linear_1239_3366" x1="433.594" y1="-41.4667" x2="449.454" y2="84.8768" gradientUnits="userSpaceOnUse">
<stop offset="0.0156" stop-color="#5A247E"/>
<stop offset="1" stop-color="#6B2F91"/>
</linearGradient>
<linearGradient id="paint11_linear_1239_3366" x1="451.719" y1="121.077" x2="451.127" y2="123.366" gradientUnits="userSpaceOnUse">
<stop stop-color="#493D9D"/>
<stop offset="1" stop-color="#271B5E"/>
</linearGradient>
<linearGradient id="paint12_linear_1239_3366" x1="383.887" y1="97.1701" x2="389.747" y2="98.6869" gradientUnits="userSpaceOnUse">
<stop stop-color="#493D9D"/>
<stop offset="1" stop-color="#271B5E"/>
</linearGradient>
<linearGradient id="paint13_linear_1239_3366" x1="391.059" y1="97.6248" x2="390.467" y2="99.9135" gradientUnits="userSpaceOnUse">
<stop stop-color="#493D9D"/>
<stop offset="1" stop-color="#271B5E"/>
</linearGradient>
<linearGradient id="paint14_linear_1239_3366" x1="393.568" y1="101.94" x2="399.43" y2="103.457" gradientUnits="userSpaceOnUse">
<stop stop-color="#493D9D"/>
<stop offset="1" stop-color="#271B5E"/>
</linearGradient>
<linearGradient id="paint15_linear_1239_3366" x1="400.742" y1="102.395" x2="400.15" y2="104.684" gradientUnits="userSpaceOnUse">
<stop stop-color="#493D9D"/>
<stop offset="1" stop-color="#271B5E"/>
</linearGradient>
<linearGradient id="paint16_linear_1239_3366" x1="403.263" y1="106.674" x2="409.123" y2="108.19" gradientUnits="userSpaceOnUse">
<stop stop-color="#493D9D"/>
<stop offset="1" stop-color="#271B5E"/>
</linearGradient>
<linearGradient id="paint17_linear_1239_3366" x1="410.435" y1="107.128" x2="409.842" y2="109.417" gradientUnits="userSpaceOnUse">
<stop stop-color="#493D9D"/>
<stop offset="1" stop-color="#271B5E"/>
</linearGradient>
<linearGradient id="paint18_linear_1239_3366" x1="412.942" y1="111.456" x2="418.802" y2="112.973" gradientUnits="userSpaceOnUse">
<stop stop-color="#493D9D"/>
<stop offset="1" stop-color="#271B5E"/>
</linearGradient>
<linearGradient id="paint19_linear_1239_3366" x1="420.115" y1="111.911" x2="419.523" y2="114.2" gradientUnits="userSpaceOnUse">
<stop stop-color="#493D9D"/>
<stop offset="1" stop-color="#271B5E"/>
</linearGradient>
<linearGradient id="paint20_linear_1239_3366" x1="409.527" y1="116.025" x2="415.39" y2="117.543" gradientUnits="userSpaceOnUse">
<stop stop-color="#493D9D"/>
<stop offset="1" stop-color="#271B5E"/>
</linearGradient>
<linearGradient id="paint21_linear_1239_3366" x1="416.703" y1="116.481" x2="416.111" y2="118.768" gradientUnits="userSpaceOnUse">
<stop stop-color="#493D9D"/>
<stop offset="1" stop-color="#271B5E"/>
</linearGradient>
<linearGradient id="paint22_linear_1239_3366" x1="418.171" y1="120.223" x2="424.033" y2="121.74" gradientUnits="userSpaceOnUse">
<stop stop-color="#493D9D"/>
<stop offset="1" stop-color="#271B5E"/>
</linearGradient>
<linearGradient id="paint23_linear_1239_3366" x1="425.346" y1="120.678" x2="424.753" y2="122.967" gradientUnits="userSpaceOnUse">
<stop stop-color="#493D9D"/>
<stop offset="1" stop-color="#271B5E"/>
</linearGradient>
<linearGradient id="paint24_linear_1239_3366" x1="376.849" y1="100.926" x2="390.393" y2="104.431" gradientUnits="userSpaceOnUse">
<stop stop-color="#493D9D"/>
<stop offset="1" stop-color="#271B5E"/>
</linearGradient>
<linearGradient id="paint25_linear_1239_3366" x1="391.499" y1="104.16" x2="390.907" y2="106.447" gradientUnits="userSpaceOnUse">
<stop stop-color="#493D9D"/>
<stop offset="1" stop-color="#271B5E"/>
</linearGradient>
<linearGradient id="paint26_linear_1239_3366" x1="393.854" y1="109.075" x2="405.858" y2="112.183" gradientUnits="userSpaceOnUse">
<stop stop-color="#493D9D"/>
<stop offset="1" stop-color="#271B5E"/>
</linearGradient>
<linearGradient id="paint27_linear_1239_3366" x1="407.007" y1="111.752" x2="406.414" y2="114.041" gradientUnits="userSpaceOnUse">
<stop stop-color="#493D9D"/>
<stop offset="1" stop-color="#271B5E"/>
</linearGradient>
<linearGradient id="paint28_linear_1239_3366" x1="422.264" y1="117.619" x2="442.253" y2="122.793" gradientUnits="userSpaceOnUse">
<stop stop-color="#493D9D"/>
<stop offset="1" stop-color="#271B5E"/>
</linearGradient>
<linearGradient id="paint29_linear_1239_3366" x1="443.189" y1="123.183" x2="442.596" y2="125.472" gradientUnits="userSpaceOnUse">
<stop stop-color="#493D9D"/>
<stop offset="1" stop-color="#271B5E"/>
</linearGradient>
<linearGradient id="paint30_linear_1239_3366" x1="370.689" y1="96.697" x2="373.609" y2="97.4528" gradientUnits="userSpaceOnUse">
<stop stop-color="#493D9D"/>
<stop offset="1" stop-color="#271B5E"/>
</linearGradient>
<linearGradient id="paint31_linear_1239_3366" x1="378.904" y1="92.4428" x2="377.182" y2="99.0948" gradientUnits="userSpaceOnUse">
<stop stop-color="#493D9D"/>
<stop offset="1" stop-color="#271B5E"/>
</linearGradient>
<linearGradient id="paint32_linear_1239_3366" x1="435.511" y1="127.63" x2="438.385" y2="128.374" gradientUnits="userSpaceOnUse">
<stop stop-color="#493D9D"/>
<stop offset="1" stop-color="#271B5E"/>
</linearGradient>
<linearGradient id="paint33_linear_1239_3366" x1="431.628" y1="125.739" x2="434.503" y2="126.483" gradientUnits="userSpaceOnUse">
<stop stop-color="#493D9D"/>
<stop offset="1" stop-color="#271B5E"/>
</linearGradient>
<linearGradient id="paint34_linear_1239_3366" x1="427.852" y1="123.885" x2="430.726" y2="124.629" gradientUnits="userSpaceOnUse">
<stop stop-color="#493D9D"/>
<stop offset="1" stop-color="#271B5E"/>
</linearGradient>
<linearGradient id="paint35_linear_1239_3366" x1="398.599" y1="91.0767" x2="404.459" y2="92.5936" gradientUnits="userSpaceOnUse">
<stop stop-color="#493D9D"/>
<stop offset="1" stop-color="#271B5E"/>
</linearGradient>
<linearGradient id="paint36_linear_1239_3366" x1="405.771" y1="91.5317" x2="405.179" y2="93.8204" gradientUnits="userSpaceOnUse">
<stop stop-color="#493D9D"/>
<stop offset="1" stop-color="#271B5E"/>
</linearGradient>
<linearGradient id="paint37_linear_1239_3366" x1="408.28" y1="95.8472" x2="414.142" y2="97.3646" gradientUnits="userSpaceOnUse">
<stop stop-color="#493D9D"/>
<stop offset="1" stop-color="#271B5E"/>
</linearGradient>
<linearGradient id="paint38_linear_1239_3366" x1="415.454" y1="96.3018" x2="414.862" y2="98.5905" gradientUnits="userSpaceOnUse">
<stop stop-color="#493D9D"/>
<stop offset="1" stop-color="#271B5E"/>
</linearGradient>
<linearGradient id="paint39_linear_1239_3366" x1="417.975" y1="100.58" x2="423.835" y2="102.097" gradientUnits="userSpaceOnUse">
<stop stop-color="#493D9D"/>
<stop offset="1" stop-color="#271B5E"/>
</linearGradient>
<linearGradient id="paint40_linear_1239_3366" x1="425.146" y1="101.035" x2="424.554" y2="103.324" gradientUnits="userSpaceOnUse">
<stop stop-color="#493D9D"/>
<stop offset="1" stop-color="#271B5E"/>
</linearGradient>
<linearGradient id="paint41_linear_1239_3366" x1="427.654" y1="105.363" x2="433.514" y2="106.88" gradientUnits="userSpaceOnUse">
<stop stop-color="#493D9D"/>
<stop offset="1" stop-color="#271B5E"/>
</linearGradient>
<linearGradient id="paint42_linear_1239_3366" x1="434.827" y1="105.818" x2="434.234" y2="108.106" gradientUnits="userSpaceOnUse">
<stop stop-color="#493D9D"/>
<stop offset="1" stop-color="#271B5E"/>
</linearGradient>
<linearGradient id="paint43_linear_1239_3366" x1="424.239" y1="109.932" x2="430.102" y2="111.449" gradientUnits="userSpaceOnUse">
<stop stop-color="#493D9D"/>
<stop offset="1" stop-color="#271B5E"/>
</linearGradient>
<linearGradient id="paint44_linear_1239_3366" x1="431.415" y1="110.388" x2="430.823" y2="112.675" gradientUnits="userSpaceOnUse">
<stop stop-color="#493D9D"/>
<stop offset="1" stop-color="#271B5E"/>
</linearGradient>
<linearGradient id="paint45_linear_1239_3366" x1="432.883" y1="114.13" x2="438.745" y2="115.647" gradientUnits="userSpaceOnUse">
<stop stop-color="#493D9D"/>
<stop offset="1" stop-color="#271B5E"/>
</linearGradient>
<linearGradient id="paint46_linear_1239_3366" x1="440.057" y1="114.585" x2="439.465" y2="116.874" gradientUnits="userSpaceOnUse">
<stop stop-color="#493D9D"/>
<stop offset="1" stop-color="#271B5E"/>
</linearGradient>
<linearGradient id="paint47_linear_1239_3366" x1="391.56" y1="94.8325" x2="405.103" y2="98.3383" gradientUnits="userSpaceOnUse">
<stop stop-color="#493D9D"/>
<stop offset="1" stop-color="#271B5E"/>
</linearGradient>
<linearGradient id="paint48_linear_1239_3366" x1="406.211" y1="98.0669" x2="405.619" y2="100.354" gradientUnits="userSpaceOnUse">
<stop stop-color="#493D9D"/>
<stop offset="1" stop-color="#271B5E"/>
</linearGradient>
<linearGradient id="paint49_linear_1239_3366" x1="408.566" y1="102.982" x2="420.57" y2="106.09" gradientUnits="userSpaceOnUse">
<stop stop-color="#493D9D"/>
<stop offset="1" stop-color="#271B5E"/>
</linearGradient>
<linearGradient id="paint50_linear_1239_3366" x1="421.719" y1="105.659" x2="421.126" y2="107.948" gradientUnits="userSpaceOnUse">
<stop stop-color="#493D9D"/>
<stop offset="1" stop-color="#271B5E"/>
</linearGradient>
<linearGradient id="paint51_linear_1239_3366" x1="436.976" y1="111.526" x2="456.965" y2="116.7" gradientUnits="userSpaceOnUse">
<stop stop-color="#493D9D"/>
<stop offset="1" stop-color="#271B5E"/>
</linearGradient>
<linearGradient id="paint52_linear_1239_3366" x1="385.402" y1="90.6034" x2="388.322" y2="91.3593" gradientUnits="userSpaceOnUse">
<stop stop-color="#493D9D"/>
<stop offset="1" stop-color="#271B5E"/>
</linearGradient>
<linearGradient id="paint53_linear_1239_3366" x1="393.616" y1="86.3498" x2="391.894" y2="93.0016" gradientUnits="userSpaceOnUse">
<stop stop-color="#493D9D"/>
<stop offset="1" stop-color="#271B5E"/>
</linearGradient>
<linearGradient id="paint54_linear_1239_3366" x1="384.421" y1="102.844" x2="385.382" y2="100.735" gradientUnits="userSpaceOnUse">
<stop stop-color="#6B2F91"/>
<stop offset="0.5107" stop-color="#713090"/>
<stop offset="0.6145" stop-color="#83328C"/>
<stop offset="0.7342" stop-color="#9F3587"/>
<stop offset="0.8648" stop-color="#C73A7F"/>
<stop offset="0.9799" stop-color="#F03F77"/>
</linearGradient>
<linearGradient id="paint55_linear_1239_3366" x1="387.665" y1="97.992" x2="388.533" y2="96.087" gradientUnits="userSpaceOnUse">
<stop stop-color="#6B2F91"/>
<stop offset="0.5107" stop-color="#713090"/>
<stop offset="0.6145" stop-color="#83328C"/>
<stop offset="0.7342" stop-color="#9F3587"/>
<stop offset="0.8648" stop-color="#C73A7F"/>
<stop offset="0.9799" stop-color="#F03F77"/>
</linearGradient>
<linearGradient id="paint56_linear_1239_3366" x1="397.347" y1="102.762" x2="398.214" y2="100.859" gradientUnits="userSpaceOnUse">
<stop stop-color="#6B2F91"/>
<stop offset="0.5107" stop-color="#713090"/>
<stop offset="0.6145" stop-color="#83328C"/>
<stop offset="0.7342" stop-color="#9F3587"/>
<stop offset="0.8648" stop-color="#C73A7F"/>
<stop offset="0.9799" stop-color="#F03F77"/>
</linearGradient>
<linearGradient id="paint57_linear_1239_3366" x1="407.04" y1="107.495" x2="407.909" y2="105.591" gradientUnits="userSpaceOnUse">
<stop stop-color="#6B2F91"/>
<stop offset="0.5107" stop-color="#713090"/>
<stop offset="0.6145" stop-color="#83328C"/>
<stop offset="0.7342" stop-color="#9F3587"/>
<stop offset="0.8648" stop-color="#C73A7F"/>
<stop offset="0.9799" stop-color="#F03F77"/>
</linearGradient>
<linearGradient id="paint58_linear_1239_3366" x1="416.721" y1="112.278" x2="417.589" y2="110.375" gradientUnits="userSpaceOnUse">
<stop stop-color="#6B2F91"/>
<stop offset="0.5107" stop-color="#713090"/>
<stop offset="0.6145" stop-color="#83328C"/>
<stop offset="0.7342" stop-color="#9F3587"/>
<stop offset="0.8648" stop-color="#C73A7F"/>
<stop offset="0.9799" stop-color="#F03F77"/>
</linearGradient>
<linearGradient id="paint59_linear_1239_3366" x1="413.307" y1="116.848" x2="414.176" y2="114.943" gradientUnits="userSpaceOnUse">
<stop stop-color="#6B2F91"/>
<stop offset="0.5107" stop-color="#713090"/>
<stop offset="0.6145" stop-color="#83328C"/>
<stop offset="0.7342" stop-color="#9F3587"/>
<stop offset="0.8648" stop-color="#C73A7F"/>
<stop offset="0.9799" stop-color="#F03F77"/>
</linearGradient>
<linearGradient id="paint60_linear_1239_3366" x1="421.951" y1="121.045" x2="422.82" y2="119.14" gradientUnits="userSpaceOnUse">
<stop stop-color="#6B2F91"/>
<stop offset="0.5107" stop-color="#713090"/>
<stop offset="0.6145" stop-color="#83328C"/>
<stop offset="0.7342" stop-color="#9F3587"/>
<stop offset="0.8648" stop-color="#C73A7F"/>
<stop offset="0.9799" stop-color="#F03F77"/>
</linearGradient>
<linearGradient id="paint61_linear_1239_3366" x1="400.667" y1="110.774" x2="401.61" y2="108.706" gradientUnits="userSpaceOnUse">
<stop stop-color="#6B2F91"/>
<stop offset="0.5107" stop-color="#713090"/>
<stop offset="0.6145" stop-color="#83328C"/>
<stop offset="0.7342" stop-color="#9F3587"/>
<stop offset="0.8648" stop-color="#C73A7F"/>
<stop offset="0.9799" stop-color="#F03F77"/>
</linearGradient>
<linearGradient id="paint62_linear_1239_3366" x1="433.019" y1="120.459" x2="434.061" y2="118.175" gradientUnits="userSpaceOnUse">
<stop stop-color="#6B2F91"/>
<stop offset="0.5107" stop-color="#713090"/>
<stop offset="0.6145" stop-color="#83328C"/>
<stop offset="0.7342" stop-color="#9F3587"/>
<stop offset="0.8648" stop-color="#C73A7F"/>
<stop offset="0.9799" stop-color="#F03F77"/>
</linearGradient>
<linearGradient id="paint63_linear_1239_3366" x1="375.228" y1="98.1069" x2="378.314" y2="91.338" gradientUnits="userSpaceOnUse">
<stop stop-color="#6B2F91"/>
<stop offset="0.5107" stop-color="#713090"/>
<stop offset="0.6145" stop-color="#83328C"/>
<stop offset="0.7342" stop-color="#9F3587"/>
<stop offset="0.8648" stop-color="#C73A7F"/>
<stop offset="0.9799" stop-color="#F03F77"/>
</linearGradient>
<linearGradient id="paint64_linear_1239_3366" x1="429.037" y1="124.57" x2="429.857" y2="122.771" gradientUnits="userSpaceOnUse">
<stop stop-color="#6B2F91"/>
<stop offset="0.5107" stop-color="#713090"/>
<stop offset="0.6145" stop-color="#83328C"/>
<stop offset="0.7342" stop-color="#9F3587"/>
<stop offset="0.8648" stop-color="#C73A7F"/>
<stop offset="0.9799" stop-color="#F03F77"/>
</linearGradient>
<linearGradient id="paint65_linear_1239_3366" x1="432.814" y1="126.427" x2="433.634" y2="124.628" gradientUnits="userSpaceOnUse">
<stop stop-color="#6B2F91"/>
<stop offset="0.5107" stop-color="#713090"/>
<stop offset="0.6145" stop-color="#83328C"/>
<stop offset="0.7342" stop-color="#9F3587"/>
<stop offset="0.8648" stop-color="#C73A7F"/>
<stop offset="0.9799" stop-color="#F03F77"/>
</linearGradient>
<linearGradient id="paint66_linear_1239_3366" x1="436.695" y1="128.319" x2="437.516" y2="126.518" gradientUnits="userSpaceOnUse">
<stop stop-color="#6B2F91"/>
<stop offset="0.5107" stop-color="#713090"/>
<stop offset="0.6145" stop-color="#83328C"/>
<stop offset="0.7342" stop-color="#9F3587"/>
<stop offset="0.8648" stop-color="#C73A7F"/>
<stop offset="0.9799" stop-color="#F03F77"/>
</linearGradient>
<linearGradient id="paint67_linear_1239_3366" x1="399.133" y1="96.7502" x2="400.095" y2="94.6413" gradientUnits="userSpaceOnUse">
<stop stop-color="#6B2F91"/>
<stop offset="0.5107" stop-color="#713090"/>
<stop offset="0.6145" stop-color="#83328C"/>
<stop offset="0.7342" stop-color="#9F3587"/>
<stop offset="0.8648" stop-color="#C73A7F"/>
<stop offset="0.9799" stop-color="#F03F77"/>
</linearGradient>
<linearGradient id="paint68_linear_1239_3366" x1="402.377" y1="91.8987" x2="403.246" y2="89.9937" gradientUnits="userSpaceOnUse">
<stop stop-color="#6B2F91"/>
<stop offset="0.5107" stop-color="#713090"/>
<stop offset="0.6145" stop-color="#83328C"/>
<stop offset="0.7342" stop-color="#9F3587"/>
<stop offset="0.8648" stop-color="#C73A7F"/>
<stop offset="0.9799" stop-color="#F03F77"/>
</linearGradient>
<linearGradient id="paint69_linear_1239_3366" x1="412.059" y1="96.6686" x2="412.927" y2="94.7654" gradientUnits="userSpaceOnUse">
<stop stop-color="#6B2F91"/>
<stop offset="0.5107" stop-color="#713090"/>
<stop offset="0.6145" stop-color="#83328C"/>
<stop offset="0.7342" stop-color="#9F3587"/>
<stop offset="0.8648" stop-color="#C73A7F"/>
<stop offset="0.9799" stop-color="#F03F77"/>
</linearGradient>
<linearGradient id="paint70_linear_1239_3366" x1="421.752" y1="101.402" x2="422.621" y2="99.4972" gradientUnits="userSpaceOnUse">
<stop stop-color="#6B2F91"/>
<stop offset="0.5107" stop-color="#713090"/>
<stop offset="0.6145" stop-color="#83328C"/>
<stop offset="0.7342" stop-color="#9F3587"/>
<stop offset="0.8648" stop-color="#C73A7F"/>
<stop offset="0.9799" stop-color="#F03F77"/>
</linearGradient>
<linearGradient id="paint71_linear_1239_3366" x1="431.433" y1="106.185" x2="432.301" y2="104.281" gradientUnits="userSpaceOnUse">
<stop stop-color="#6B2F91"/>
<stop offset="0.5107" stop-color="#713090"/>
<stop offset="0.6145" stop-color="#83328C"/>
<stop offset="0.7342" stop-color="#9F3587"/>
<stop offset="0.8648" stop-color="#C73A7F"/>
<stop offset="0.9799" stop-color="#F03F77"/>
</linearGradient>
<linearGradient id="paint72_linear_1239_3366" x1="428.019" y1="110.755" x2="428.888" y2="108.85" gradientUnits="userSpaceOnUse">
<stop stop-color="#6B2F91"/>
<stop offset="0.5107" stop-color="#713090"/>
<stop offset="0.6145" stop-color="#83328C"/>
<stop offset="0.7342" stop-color="#9F3587"/>
<stop offset="0.8648" stop-color="#C73A7F"/>
<stop offset="0.9799" stop-color="#F03F77"/>
</linearGradient>
<linearGradient id="paint73_linear_1239_3366" x1="436.662" y1="114.952" x2="437.531" y2="113.047" gradientUnits="userSpaceOnUse">
<stop stop-color="#6B2F91"/>
<stop offset="0.5107" stop-color="#713090"/>
<stop offset="0.6145" stop-color="#83328C"/>
<stop offset="0.7342" stop-color="#9F3587"/>
<stop offset="0.8648" stop-color="#C73A7F"/>
<stop offset="0.9799" stop-color="#F03F77"/>
</linearGradient>
<linearGradient id="paint74_linear_1239_3366" x1="415.379" y1="104.681" x2="416.322" y2="102.613" gradientUnits="userSpaceOnUse">
<stop stop-color="#6B2F91"/>
<stop offset="0.5107" stop-color="#713090"/>
<stop offset="0.6145" stop-color="#83328C"/>
<stop offset="0.7342" stop-color="#9F3587"/>
<stop offset="0.8648" stop-color="#C73A7F"/>
<stop offset="0.9799" stop-color="#F03F77"/>
</linearGradient>
<linearGradient id="paint75_linear_1239_3366" x1="447.731" y1="114.366" x2="448.773" y2="112.081" gradientUnits="userSpaceOnUse">
<stop stop-color="#6B2F91"/>
<stop offset="0.5107" stop-color="#713090"/>
<stop offset="0.6145" stop-color="#83328C"/>
<stop offset="0.7342" stop-color="#9F3587"/>
<stop offset="0.8648" stop-color="#C73A7F"/>
<stop offset="0.9799" stop-color="#F03F77"/>
</linearGradient>
<linearGradient id="paint76_linear_1239_3366" x1="389.94" y1="92.0136" x2="393.026" y2="85.2446" gradientUnits="userSpaceOnUse">
<stop stop-color="#6B2F91"/>
<stop offset="0.5107" stop-color="#713090"/>
<stop offset="0.6145" stop-color="#83328C"/>
<stop offset="0.7342" stop-color="#9F3587"/>
<stop offset="0.8648" stop-color="#C73A7F"/>
<stop offset="0.9799" stop-color="#F03F77"/>
</linearGradient>
<linearGradient id="paint77_linear_1239_3366" x1="443.749" y1="118.477" x2="444.569" y2="116.678" gradientUnits="userSpaceOnUse">
<stop stop-color="#6B2F91"/>
<stop offset="0.5107" stop-color="#713090"/>
<stop offset="0.6145" stop-color="#83328C"/>
<stop offset="0.7342" stop-color="#9F3587"/>
<stop offset="0.8648" stop-color="#C73A7F"/>
<stop offset="0.9799" stop-color="#F03F77"/>
</linearGradient>
<linearGradient id="paint78_linear_1239_3366" x1="447.526" y1="120.334" x2="448.347" y2="118.535" gradientUnits="userSpaceOnUse">
<stop stop-color="#6B2F91"/>
<stop offset="0.5107" stop-color="#713090"/>
<stop offset="0.6145" stop-color="#83328C"/>
<stop offset="0.7342" stop-color="#9F3587"/>
<stop offset="0.8648" stop-color="#C73A7F"/>
<stop offset="0.9799" stop-color="#F03F77"/>
</linearGradient>
<linearGradient id="paint79_linear_1239_3366" x1="451.407" y1="122.226" x2="452.229" y2="120.425" gradientUnits="userSpaceOnUse">
<stop stop-color="#6B2F91"/>
<stop offset="0.5107" stop-color="#713090"/>
<stop offset="0.6145" stop-color="#83328C"/>
<stop offset="0.7342" stop-color="#9F3587"/>
<stop offset="0.8648" stop-color="#C73A7F"/>
<stop offset="0.9799" stop-color="#F03F77"/>
</linearGradient>
<linearGradient id="paint80_linear_1239_3366" x1="450.223" y1="121.537" x2="453.097" y2="122.281" gradientUnits="userSpaceOnUse">
<stop stop-color="#493D9D"/>
<stop offset="1" stop-color="#271B5E"/>
</linearGradient>
<linearGradient id="paint81_linear_1239_3366" x1="446.34" y1="119.646" x2="449.215" y2="120.39" gradientUnits="userSpaceOnUse">
<stop stop-color="#493D9D"/>
<stop offset="1" stop-color="#271B5E"/>
</linearGradient>
<linearGradient id="paint82_linear_1239_3366" x1="442.563" y1="117.792" x2="445.437" y2="118.536" gradientUnits="userSpaceOnUse">
<stop stop-color="#493D9D"/>
<stop offset="1" stop-color="#271B5E"/>
</linearGradient>
<linearGradient id="paint83_linear_1239_3366" x1="2.48688" y1="124.144" x2="70.5497" y2="-33.0633" gradientUnits="userSpaceOnUse">
<stop offset="0.2694" stop-color="#2E074F"/>
<stop offset="0.4518" stop-color="#350B56"/>
<stop offset="0.7228" stop-color="#47186A"/>
<stop offset="0.9631" stop-color="#5D2682"/>
</linearGradient>
<linearGradient id="paint84_linear_1239_3366" x1="157.805" y1="166.604" x2="225.868" y2="9.39689" gradientUnits="userSpaceOnUse">
<stop offset="0.2694" stop-color="#2E074F"/>
<stop offset="0.4518" stop-color="#350B56"/>
<stop offset="0.7228" stop-color="#47186A"/>
<stop offset="0.9631" stop-color="#5D2682"/>
</linearGradient>
<radialGradient id="paint85_radial_1239_3366" cx="0" cy="0" r="1" gradientUnits="userSpaceOnUse" gradientTransform="translate(128.077 158.043) scale(59.8269 59.8267)">
<stop stop-color="#AA31A9"/>
<stop offset="0.1337" stop-color="#A530A5" stop-opacity="0.8663"/>
<stop offset="0.291" stop-color="#972C99" stop-opacity="0.709"/>
<stop offset="0.4604" stop-color="#7F2585" stop-opacity="0.5396"/>
<stop offset="0.6382" stop-color="#5E1C69" stop-opacity="0.3618"/>
<stop offset="0.8206" stop-color="#341045" stop-opacity="0.1794"/>
<stop offset="1" stop-color="#03031C" stop-opacity="0"/>
</radialGradient>
<radialGradient id="paint86_radial_1239_3366" cx="0" cy="0" r="1" gradientUnits="userSpaceOnUse" gradientTransform="translate(122.708 157.429) scale(64.1801)">
<stop stop-color="#AA31A9"/>
<stop offset="0.1337" stop-color="#A530A5" stop-opacity="0.8663"/>
<stop offset="0.291" stop-color="#972C99" stop-opacity="0.709"/>
<stop offset="0.4604" stop-color="#7F2585" stop-opacity="0.5396"/>
<stop offset="0.6382" stop-color="#5E1C69" stop-opacity="0.3618"/>
<stop offset="0.8206" stop-color="#341045" stop-opacity="0.1794"/>
<stop offset="1" stop-color="#03031C" stop-opacity="0"/>
</radialGradient>
<radialGradient id="paint87_radial_1239_3366" cx="0" cy="0" r="1" gradientUnits="userSpaceOnUse" gradientTransform="translate(122.642 160.135) scale(60.3648 60.3645)">
<stop stop-color="#AA31A9"/>
<stop offset="0.1337" stop-color="#A530A5" stop-opacity="0.8663"/>
<stop offset="0.291" stop-color="#972C99" stop-opacity="0.709"/>
<stop offset="0.4604" stop-color="#7F2585" stop-opacity="0.5396"/>
<stop offset="0.6382" stop-color="#5E1C69" stop-opacity="0.3618"/>
<stop offset="0.8206" stop-color="#341045" stop-opacity="0.1794"/>
<stop offset="1" stop-color="#03031C" stop-opacity="0"/>
</radialGradient>
<radialGradient id="paint88_radial_1239_3366" cx="0" cy="0" r="1" gradientUnits="userSpaceOnUse" gradientTransform="translate(121.7 157.552) scale(63.2443)">
<stop stop-color="#AA31A9"/>
<stop offset="0.1337" stop-color="#A530A5" stop-opacity="0.8663"/>
<stop offset="0.291" stop-color="#972C99" stop-opacity="0.709"/>
<stop offset="0.4604" stop-color="#7F2585" stop-opacity="0.5396"/>
<stop offset="0.6382" stop-color="#5E1C69" stop-opacity="0.3618"/>
<stop offset="0.8206" stop-color="#341045" stop-opacity="0.1794"/>
<stop offset="1" stop-color="#03031C" stop-opacity="0"/>
</radialGradient>
<radialGradient id="paint89_radial_1239_3366" cx="0" cy="0" r="1" gradientUnits="userSpaceOnUse" gradientTransform="translate(115.194 157.553) scale(53.9806 53.9803)">
<stop stop-color="#AA31A9"/>
<stop offset="0.1337" stop-color="#A530A5" stop-opacity="0.8663"/>
<stop offset="0.291" stop-color="#972C99" stop-opacity="0.709"/>
<stop offset="0.4604" stop-color="#7F2585" stop-opacity="0.5396"/>
<stop offset="0.6382" stop-color="#5E1C69" stop-opacity="0.3618"/>
<stop offset="0.8206" stop-color="#341045" stop-opacity="0.1794"/>
<stop offset="1" stop-color="#03031C" stop-opacity="0"/>
</radialGradient>
<radialGradient id="paint90_radial_1239_3366" cx="0" cy="0" r="1" gradientUnits="userSpaceOnUse" gradientTransform="translate(121.209 156.807) scale(62.4803)">
<stop stop-color="#AA31A9"/>
<stop offset="0.1337" stop-color="#A530A5" stop-opacity="0.8663"/>
<stop offset="0.291" stop-color="#972C99" stop-opacity="0.709"/>
<stop offset="0.4604" stop-color="#7F2585" stop-opacity="0.5396"/>
<stop offset="0.6382" stop-color="#5E1C69" stop-opacity="0.3618"/>
<stop offset="0.8206" stop-color="#341045" stop-opacity="0.1794"/>
<stop offset="1" stop-color="#03031C" stop-opacity="0"/>
</radialGradient>
<radialGradient id="paint91_radial_1239_3366" cx="0" cy="0" r="1" gradientUnits="userSpaceOnUse" gradientTransform="translate(120.966 156.098) scale(55.3762 55.3755)">
<stop stop-color="#AA31A9"/>
<stop offset="0.1337" stop-color="#A530A5" stop-opacity="0.8663"/>
<stop offset="0.291" stop-color="#972C99" stop-opacity="0.709"/>
<stop offset="0.4604" stop-color="#7F2585" stop-opacity="0.5396"/>
<stop offset="0.6382" stop-color="#5E1C69" stop-opacity="0.3618"/>
<stop offset="0.8206" stop-color="#341045" stop-opacity="0.1794"/>
<stop offset="1" stop-color="#03031C" stop-opacity="0"/>
</radialGradient>
<radialGradient id="paint92_radial_1239_3366" cx="0" cy="0" r="1" gradientUnits="userSpaceOnUse" gradientTransform="translate(121.481 155.973) scale(63.7744 63.7741)">
<stop stop-color="#AA31A9"/>
<stop offset="0.1337" stop-color="#A530A5" stop-opacity="0.8663"/>
<stop offset="0.291" stop-color="#972C99" stop-opacity="0.709"/>
<stop offset="0.4604" stop-color="#7F2585" stop-opacity="0.5396"/>
<stop offset="0.6382" stop-color="#5E1C69" stop-opacity="0.3618"/>
<stop offset="0.8206" stop-color="#341045" stop-opacity="0.1794"/>
<stop offset="1" stop-color="#03031C" stop-opacity="0"/>
</radialGradient>
<radialGradient id="paint93_radial_1239_3366" cx="0" cy="0" r="1" gradientUnits="userSpaceOnUse" gradientTransform="translate(118.105 153.11) scale(60.0016 60.0018)">
<stop stop-color="#AA31A9"/>
<stop offset="0.1337" stop-color="#A530A5" stop-opacity="0.8663"/>
<stop offset="0.291" stop-color="#972C99" stop-opacity="0.709"/>
<stop offset="0.4604" stop-color="#7F2585" stop-opacity="0.5396"/>
<stop offset="0.6382" stop-color="#5E1C69" stop-opacity="0.3618"/>
<stop offset="0.8206" stop-color="#341045" stop-opacity="0.1794"/>
<stop offset="1" stop-color="#03031C" stop-opacity="0"/>
</radialGradient>
<radialGradient id="paint94_radial_1239_3366" cx="0" cy="0" r="1" gradientUnits="userSpaceOnUse" gradientTransform="translate(305.325 179.833) scale(71.2928 71.2934)">
<stop stop-color="#AA31A9"/>
<stop offset="0.1337" stop-color="#A530A5" stop-opacity="0.8663"/>
<stop offset="0.291" stop-color="#972C99" stop-opacity="0.709"/>
<stop offset="0.4604" stop-color="#7F2585" stop-opacity="0.5396"/>
<stop offset="0.6382" stop-color="#5E1C69" stop-opacity="0.3618"/>
<stop offset="0.8206" stop-color="#341045" stop-opacity="0.1794"/>
<stop offset="1" stop-color="#03031C" stop-opacity="0"/>
</radialGradient>
<radialGradient id="paint95_radial_1239_3366" cx="0" cy="0" r="1" gradientUnits="userSpaceOnUse" gradientTransform="translate(298.711 183.563) scale(77.6012)">
<stop stop-color="#AA31A9"/>
<stop offset="0.1337" stop-color="#A530A5" stop-opacity="0.8663"/>
<stop offset="0.291" stop-color="#972C99" stop-opacity="0.709"/>
<stop offset="0.4604" stop-color="#7F2585" stop-opacity="0.5396"/>
<stop offset="0.6382" stop-color="#5E1C69" stop-opacity="0.3618"/>
<stop offset="0.8206" stop-color="#341045" stop-opacity="0.1794"/>
<stop offset="1" stop-color="#03031C" stop-opacity="0"/>
</radialGradient>
<radialGradient id="paint96_radial_1239_3366" cx="0" cy="0" r="1" gradientUnits="userSpaceOnUse" gradientTransform="translate(298.228 184.707) scale(72.2565)">
<stop stop-color="#AA31A9"/>
<stop offset="0.1337" stop-color="#A530A5" stop-opacity="0.8663"/>
<stop offset="0.291" stop-color="#972C99" stop-opacity="0.709"/>
<stop offset="0.4604" stop-color="#7F2585" stop-opacity="0.5396"/>
<stop offset="0.6382" stop-color="#5E1C69" stop-opacity="0.3618"/>
<stop offset="0.8206" stop-color="#341045" stop-opacity="0.1794"/>
<stop offset="1" stop-color="#03031C" stop-opacity="0"/>
</radialGradient>
<radialGradient id="paint97_radial_1239_3366" cx="0" cy="0" r="1" gradientUnits="userSpaceOnUse" gradientTransform="translate(297.912 183.665) scale(77.3066)">
<stop stop-color="#AA31A9"/>
<stop offset="0.1337" stop-color="#A530A5" stop-opacity="0.8663"/>
<stop offset="0.291" stop-color="#972C99" stop-opacity="0.709"/>
<stop offset="0.4604" stop-color="#7F2585" stop-opacity="0.5396"/>
<stop offset="0.6382" stop-color="#5E1C69" stop-opacity="0.3618"/>
<stop offset="0.8206" stop-color="#341045" stop-opacity="0.1794"/>
<stop offset="1" stop-color="#03031C" stop-opacity="0"/>
</radialGradient>
<radialGradient id="paint98_radial_1239_3366" cx="0" cy="0" r="1" gradientUnits="userSpaceOnUse" gradientTransform="translate(292.841 181.576) scale(72.4552 72.4555)">
<stop stop-color="#AA31A9"/>
<stop offset="0.1337" stop-color="#A530A5" stop-opacity="0.8663"/>
<stop offset="0.291" stop-color="#972C99" stop-opacity="0.709"/>
<stop offset="0.4604" stop-color="#7F2585" stop-opacity="0.5396"/>
<stop offset="0.6382" stop-color="#5E1C69" stop-opacity="0.3618"/>
<stop offset="0.8206" stop-color="#341045" stop-opacity="0.1794"/>
<stop offset="1" stop-color="#03031C" stop-opacity="0"/>
</radialGradient>
</defs>
</svg>
