<svg xmlns="http://www.w3.org/2000/svg" xmlns:xlink="http://www.w3.org/1999/xlink" width="2000" height="704" viewBox="0 0 2000 704">
  <defs>
    <linearGradient id="linear-gradient" x1="0.5" x2="0.5" y2="1" gradientUnits="objectBoundingBox">
      <stop offset="0" stop-color="#015ec7"/>
      <stop offset="1" stop-color="#012f64"/>
    </linearGradient>
    <linearGradient id="linear-gradient-2" x1="0.053" y1="0.5" x2="0.401" y2="-0.151" xlink:href="#linear-gradient"/>
    <linearGradient id="linear-gradient-5" x1="0.947" y1="0.5" x2="0.599" y2="-0.151" xlink:href="#linear-gradient"/>
    <clipPath id="clip-vesting">
      <rect width="2000" height="704"/>
    </clipPath>
  </defs>
  <g id="vesting" clip-path="url(#clip-vesting)">
    <g id="Gruppe_16" data-name="Gruppe 16" transform="translate(12 -224)">
      <g id="Gruppe_11" data-name="Gruppe 11" transform="translate(22.5 13.217)">
        <path id="Pfad_40" data-name="Pfad 40" d="M2458.554,596.812l234.388,81.556,240.829-131.382,166.15,131.382,228.716-45.275,347.594-64.425" transform="translate(-2140 122.361)" fill="none" stroke="#90cdf4" stroke-width="4" stroke-dasharray="60 20"/>
      </g>
      <g id="Gruppe_12" data-name="Gruppe 12" transform="translate(-6 14)">
        <g id="Gruppe_7" data-name="Gruppe 7" transform="translate(-102.708 -155.727)">
          <path id="Pfad_36" data-name="Pfad 36" d="M2478.931,815.111s141.105,91.834,162.277,92.425,19.867.559,38.426-5.457,24.368-9.265,35.811-18.608,9.977-19.248,9.977-19.248l-.461-188.471-14.611,27.338-8.2,5.988-57.091,12.508-166.127-93.806Z" transform="translate(-2140)" fill="url(#linear-gradient)"/>
          <path id="Pfad_37" data-name="Pfad 37" d="M2518.27,586.048l-21.839,8.7-17.46,28.4v4.747L2640.8,722.028l12.978-.548,42.551-8.629,13.261-8.129,15.393-28.96-4.1-2.945-15.563,26.339-11.881,7.07-46.881,8.581-10.247-3.3L2483.594,623.1l16.419-28.093,18.257-7.237v.674" transform="translate(-2140)" fill="#253e81"/>
          <path id="Pfad_38" data-name="Pfad 38" d="M2684.883,651.319l36.007,21.468L2705.1,699.6l-11.772,6.8-47.3,8.676-10.734-3.395-151.7-88.564,16.386-28.139,17.936-7.5.4,17.233c6.208,17.694,21.892,19.758,39.158-1.921V578.921l38.754,21.355,38.183,22.269,11,6.119V678.9l39.467-.194Z" transform="translate(-2140)" fill="url(#linear-gradient-2)"/>
          <path id="Pfad_39" data-name="Pfad 39" d="M2685.914,647.992s2.8-42.95-1.706-74.561-18.036-51.348-18.036-51.348a153.823,153.823,0,0,0-22.772-31.035c-14.7-15.51-18.5-21.275-36.022-31s-18.185-7.914-34.055-7.914-17.458.68-29.423,7.914-12.318,10.555-18.438,21.023a44.993,44.993,0,0,0-6.04,20.847l-1.493,84.511v26.93l10.521,7.443,16.234.8,12.542-8.243.733-7.65-.733-96.449s-.11-7.549,3.447-11.92,5.552-5.025,10.778-5.563,5.962-.1,12.616,2.431,6.572,2.091,14,7.711,6.341,3.173,15.705,14.768,14.005,16.5,21.751,31.614a92.181,92.181,0,0,1,9.233,28.861V679.3l1.227,8.611,9.019,6.517h18.659l10.971-9.343Z" transform="translate(-2140)" fill="url(#linear-gradient)"/>
        </g>
        <path id="Pfad_41" data-name="Pfad 41" d="M2390.755,516.87l120.424,70.161V698.992l-120.424-69.527Z" transform="translate(-2134.972 5)" fill="#0a6caa"/>
      </g>
      <g id="Gruppe_13" data-name="Gruppe 13" transform="translate(653.224 310.268)">
        <g id="Gruppe_7-2" data-name="Gruppe 7" transform="translate(0)">
          <path id="Pfad_36-2" data-name="Pfad 36" d="M2725.484,815.111s-141.105,91.834-162.277,92.425-19.867.559-38.426-5.457-24.368-9.265-35.812-18.608-9.977-19.248-9.977-19.248l.461-188.471,14.611,27.338,8.2,5.988,57.091,12.508,166.127-93.806Z" transform="translate(-2478.931 -451.995)" fill="url(#linear-gradient)"/>
          <path id="Pfad_37-2" data-name="Pfad 37" d="M2685.683,586.048l21.839,8.7,17.46,28.4v4.747l-161.827,94.133-12.978-.548-42.551-8.629-13.261-8.129-15.393-28.96,4.1-2.945,15.563,26.339,11.881,7.07,46.881,8.581,10.247-3.3L2720.359,623.1l-16.419-28.093-18.257-7.237v.674" transform="translate(-2478.469 -451.995)" fill="#253e81"/>
          <path id="Pfad_38-2" data-name="Pfad 38" d="M2519.6,651.319l-36.008,21.468,15.793,26.817,11.772,6.8,47.3,8.676,10.734-3.395,151.7-88.564L2704.5,594.986l-17.936-7.5-.4,17.233c-6.208,17.694-21.892,19.758-39.158-1.921V578.921l-38.754,21.355-38.183,22.269-11,6.119V678.9l-39.467-.194Z" transform="translate(-2478.998 -451.995)" fill="url(#linear-gradient-5)"/>
          <path id="Pfad_39-2" data-name="Pfad 39" d="M2518.791,647.992s-2.8-42.95,1.706-74.561,18.036-51.348,18.036-51.348a153.823,153.823,0,0,1,22.772-31.035c14.7-15.51,36.022-31,36.022-31s18.185-7.914,34.055-7.914,17.458.68,29.423,7.914,12.318,10.555,18.438,21.023a44.993,44.993,0,0,1,6.04,20.847l1.493,84.511v26.93l-10.521,7.443-16.234.8-12.542-8.243-.733-7.65.733-96.449s.11-7.549-3.447-11.92-5.552-5.025-10.778-5.563-5.962-.1-12.616,2.431-6.572,2.091-14,7.711-6.341,3.173-15.705,14.768-14.005,16.5-21.751,31.614a92.181,92.181,0,0,0-9.233,28.861V679.3l-1.227,8.611-9.019,6.517h-18.659l-10.971-9.343Z" transform="translate(-2479.221 -451.995)" fill="url(#linear-gradient)"/>
        </g>
        <path id="Pfad_41-2" data-name="Pfad 41" d="M2511.18,516.87l-120.424,70.161V698.992l120.424-69.527Z" transform="translate(-2284.186 -291.268)" fill="#0a6caa"/>
      </g>
      <g id="Gruppe_14" data-name="Gruppe 14" transform="translate(1076.224 372.099)">
        <g id="Gruppe_7-3" data-name="Gruppe 7" transform="translate(0)">
          <path id="Pfad_36-3" data-name="Pfad 36" d="M2478.931,815.111s141.105,91.834,162.277,92.425,19.867.559,38.426-5.457,24.368-9.265,35.812-18.608,9.977-19.248,9.977-19.248l-.461-188.471-14.611,27.338-8.2,5.988-57.091,12.508-166.127-93.806Z" transform="translate(-2478.931 -451.995)" fill="url(#linear-gradient)"/>
          <path id="Pfad_37-3" data-name="Pfad 37" d="M2518.27,586.048l-21.839,8.7-17.46,28.4v4.747L2640.8,722.028l12.978-.548,42.551-8.629,13.261-8.129,15.393-28.96-4.1-2.945-15.563,26.339-11.881,7.07-46.881,8.581-10.247-3.3L2483.594,623.1l16.419-28.093,18.257-7.237v.674" transform="translate(-2478.931 -451.995)" fill="#253e81"/>
          <path id="Pfad_38-3" data-name="Pfad 38" d="M2684.883,651.319l36.008,21.468L2705.1,699.6l-11.772,6.8-47.3,8.676-10.734-3.395-151.7-88.564,16.386-28.139,17.936-7.5.4,17.233c6.208,17.694,21.892,19.758,39.158-1.921V578.921l38.754,21.355,38.183,22.269,11,6.119V678.9l39.467-.194Z" transform="translate(-2478.931 -451.995)" fill="url(#linear-gradient-2)"/>
          <path id="Pfad_39-3" data-name="Pfad 39" d="M2685.914,647.992s2.8-42.95-1.706-74.561-18.036-51.348-18.036-51.348a153.822,153.822,0,0,0-22.772-31.035c-14.7-15.51-18.5-21.275-36.022-31s-18.185-7.914-34.055-7.914-17.458.68-29.423,7.914-12.318,10.555-18.438,21.023a44.993,44.993,0,0,0-6.04,20.847l-1.493,84.511v26.93l10.521,7.443,16.234.8,12.542-8.243.733-7.65-.733-96.449s-.11-7.549,3.447-11.92,5.552-5.025,10.778-5.563,5.962-.1,12.616,2.431,6.572,2.091,14,7.711,6.341,3.173,15.705,14.768,14.005,16.5,21.751,31.614a92.181,92.181,0,0,1,9.233,28.861V679.3l1.227,8.611,9.019,6.517h18.659l10.971-9.343Z" transform="translate(-2478.932 -451.995)" fill="url(#linear-gradient)"/>
        </g>
        <path id="Pfad_41-3" data-name="Pfad 41" d="M2390.755,516.87l120.424,70.161V698.992l-120.424-69.527Z" transform="translate(-2371.196 -291.268)" fill="#0a6caa"/>
      </g>
      <g id="Gruppe_15" data-name="Gruppe 15" transform="translate(1499.224 286.268)">
        <g id="Gruppe_7-4" data-name="Gruppe 7" transform="translate(0)">
          <path id="Pfad_36-4" data-name="Pfad 36" d="M2725.484,815.111s-141.105,91.834-162.277,92.425-19.867.559-38.426-5.457-24.368-9.265-35.812-18.608-9.977-19.248-9.977-19.248l.461-188.471,14.611,27.338,8.2,5.988,57.091,12.508,166.127-93.806Z" transform="translate(-2478.931 -451.995)" fill="url(#linear-gradient)"/>
          <path id="Pfad_37-4" data-name="Pfad 37" d="M2685.683,586.048l21.839,8.7,17.46,28.4v4.747l-161.827,94.133-12.978-.548-42.551-8.629-13.261-8.129-15.393-28.96,4.1-2.945,15.563,26.339,11.881,7.07,46.881,8.581,10.247-3.3L2720.359,623.1l-16.419-28.093-18.257-7.237v.674" transform="translate(-2478.469 -451.995)" fill="#253e81"/>
          <path id="Pfad_38-4" data-name="Pfad 38" d="M2519.6,651.319l-36.008,21.468,15.793,26.817,11.772,6.8,47.3,8.676,10.734-3.395,151.7-88.564L2704.5,594.986l-17.936-7.5-.4,17.233c-6.208,17.694-21.892,19.758-39.158-1.921V578.921l-38.754,21.355-38.183,22.269-11,6.119V678.9l-39.467-.194Z" transform="translate(-2478.998 -451.995)" fill="url(#linear-gradient-5)"/>
          <path id="Pfad_39-4" data-name="Pfad 39" d="M2518.791,647.992s-2.8-42.95,1.706-74.561,18.036-51.348,18.036-51.348a153.823,153.823,0,0,1,22.772-31.035c14.7-15.51,18.5-21.275,36.022-31s18.185-7.914,34.055-7.914,17.458.68,29.423,7.914,12.318,10.555,18.438,21.023a44.993,44.993,0,0,1,6.04,20.847l1.493,84.511v26.93l-10.521,7.443-16.234.8-12.542-8.243-.733-7.65.733-96.449s.11-7.549-3.447-11.92-5.552-5.025-10.778-5.563-5.962-.1-12.616,2.431-6.572,2.091-14,7.711-6.341,3.173-15.705,14.768-14.005,16.5-21.751,31.614a92.181,92.181,0,0,0-9.233,28.861V679.3l-1.227,8.611-9.019,6.517h-18.659l-10.971-9.343Z" transform="translate(-2479.221 -451.995)" fill="url(#linear-gradient)"/>
        </g>
        <path id="Pfad_41-4" data-name="Pfad 41" d="M2511.18,516.87l-120.424,70.161V698.992l120.424-69.527Z" transform="translate(-2284.186 -291.268)" fill="#0a6caa"/>
      </g>
    </g>
  </g>
</svg>
